<svg width="15" height="14" viewBox="0 0 15 14" fill="none" xmlns="http://www.w3.org/2000/svg">
<path d="M1.91785 6.26448L6.0447 9.43698L7.19698 8.55098C7.23986 8.51805 7.29219 8.50022 7.34599 8.50022C7.39978 8.50022 7.45211 8.51805 7.49499 8.55098L8.64628 9.43598L12.7722 6.26448V1.50098H1.91785V6.26448ZM7.345 2.75098C7.93363 2.75164 8.49797 2.9889 8.91419 3.41072C9.33042 3.83253 9.56454 4.40444 9.5652 5.00098V5.50098C9.56546 5.66366 9.51342 5.82199 9.41696 5.95202C9.32049 6.08205 9.18485 6.17669 9.03057 6.22161C8.87628 6.26653 8.71176 6.25929 8.5619 6.20099C8.41204 6.14268 8.285 6.03649 8.20002 5.89848C7.99529 6.09768 7.72893 6.21908 7.44602 6.2421C7.16311 6.26513 6.88104 6.18838 6.64756 6.02484C6.41409 5.8613 6.24354 5.62102 6.16481 5.34468C6.08607 5.06835 6.10398 4.77292 6.2155 4.50843C6.32702 4.24393 6.5253 4.02662 6.77678 3.89327C7.02825 3.75993 7.31747 3.71874 7.59547 3.77669C7.87347 3.83464 8.12317 3.98816 8.3023 4.21126C8.48143 4.43437 8.57898 4.71335 8.57844 5.00098V5.50098C8.57844 5.56728 8.60443 5.63087 8.65069 5.67775C8.69696 5.72464 8.7597 5.75098 8.82513 5.75098C8.89056 5.75098 8.9533 5.72464 8.99957 5.67775C9.04583 5.63087 9.07182 5.56728 9.07182 5.50098V5.00098C9.07182 4.65486 8.97054 4.31651 8.7808 4.02873C8.59105 3.74094 8.32136 3.51664 8.00582 3.38419C7.69029 3.25173 7.34308 3.21708 7.00811 3.2846C6.67314 3.35213 6.36545 3.5188 6.12395 3.76354C5.88245 4.00828 5.71799 4.3201 5.65136 4.65957C5.58473 4.99904 5.61892 5.3509 5.74962 5.67067C5.88032 5.99044 6.10165 6.26376 6.38563 6.45605C6.6696 6.64834 7.00347 6.75098 7.345 6.75098H8.08506C8.15049 6.75098 8.21324 6.77732 8.2595 6.8242C8.30576 6.87108 8.33175 6.93467 8.33175 7.00098C8.33175 7.06728 8.30576 7.13087 8.2595 7.17775C8.21324 7.22464 8.15049 7.25098 8.08506 7.25098H7.345C6.75617 7.25098 6.19145 7.01392 5.77508 6.59197C5.35871 6.17001 5.1248 5.59771 5.1248 5.00098C5.1248 4.40424 5.35871 3.83194 5.77508 3.40999C6.19145 2.98803 6.75617 2.75098 7.345 2.75098Z" fill="white"/>
<path d="M7.34541 5.75098C7.75414 5.75098 8.08548 5.41519 8.08548 5.00098C8.08548 4.58676 7.75414 4.25098 7.34541 4.25098C6.93669 4.25098 6.60535 4.58676 6.60535 5.00098C6.60535 5.41519 6.93669 5.75098 7.34541 5.75098Z" fill="white"/>
<path d="M0.599243 5.25046L1.42442 5.88471V4.61621L0.599243 5.25046Z" fill="white"/>
<path d="M0.437378 13.7469L5.6361 9.75016L0.437378 5.75391V13.7469Z" fill="white"/>
<path d="M13.2655 5.88544L14.0907 5.25119L13.2655 4.61719V5.88544Z" fill="white"/>
<path d="M14.2513 5.75391L9.05261 9.75016L14.2513 13.7469V5.75391Z" fill="white"/>
<path d="M7.34623 9.06445L0.925659 14.0007H13.7668L7.34623 9.06445Z" fill="white"/>
<path d="M6.12683 1.0007H8.56264L7.34473 0.0644531L6.12683 1.0007Z" fill="white"/>
</svg>
