<svg width="21" height="22" viewBox="0 0 21 22" fill="none" xmlns="http://www.w3.org/2000/svg">
<g clip-path="url(#clip0_1_2399)">
<path d="M17.0893 0.960074H2.99152C1.34221 0.960074 0.00013518 2.28946 0.00013518 3.92319V18.0775C0.00013518 19.7112 1.34221 21.0406 2.99152 21.0406H9.01416V14.0373H6.62106V10.4815H9.01416V8.07155C9.01416 6.1108 10.6244 4.51581 12.6038 4.51581H16.2334V8.07155H12.6038V10.4815H16.2334L15.6351 14.0373H12.6038V21.0406H17.0893C18.7386 21.0406 20.0807 19.7112 20.0807 18.0775V3.92319C20.0807 2.28946 18.7386 0.960074 17.0893 0.960074Z" fill="url(#paint0_linear_1_2399)"/>
</g>
<defs>
<linearGradient id="paint0_linear_1_2399" x1="20.0805" y1="11.0002" x2="-3.93603e-07" y2="11.0002" gradientUnits="userSpaceOnUse">
<stop stop-color="#001C54"/>
<stop offset="1" stop-color="#001C54"/>
</linearGradient>
<clipPath id="clip0_1_2399">
<rect width="20.0805" height="20.0805" fill="white" transform="translate(0 0.959961)"/>
</clipPath>
</defs>
</svg>
