<svg width="22" height="22" viewBox="0 0 22 22" fill="none" xmlns="http://www.w3.org/2000/svg">
<g clip-path="url(#clip0_1_2402)">
<path fill-rule="evenodd" clip-rule="evenodd" d="M2.51565 2.52915C3.39317 1.64118 4.50321 1.10064 5.7181 0.969647C5.77643 0.963345 7.25144 0.959473 9.26637 0.959473C9.26648 0.959473 9.26658 0.959473 9.26668 0.959473C9.86435 0.959473 10.5095 0.959813 11.1793 0.960532C16.4506 0.96619 16.5064 0.967054 16.8566 1.04929C17.9533 1.30687 18.7323 1.73704 19.5094 2.51414C20.1494 3.15408 20.5402 3.77666 20.8018 4.57266C20.8488 4.71547 20.8872 4.82228 20.9187 4.9311C21.0715 5.45921 21.0605 6.03472 21.0605 11.0015C21.0605 16.0448 21.0558 16.4259 20.9901 16.7377C20.7537 17.8587 20.2852 18.7265 19.4944 19.5079C18.8711 20.1239 18.2868 20.4936 17.5143 20.7606C17.3656 20.812 17.2547 20.854 17.1414 20.8882C16.6016 21.0515 16.0089 21.0398 11.0221 21.0398C5.97883 21.0398 5.59768 21.0352 5.28592 20.9694C4.1654 20.7331 3.30638 20.2688 2.51565 19.472C1.7369 18.6872 1.28829 17.8479 1.05417 16.7377C0.98844 16.4259 0.983765 16.0446 0.983765 11.0015C0.983765 5.95834 0.98844 5.577 1.05417 5.26524C1.28802 4.15619 1.73537 3.3187 2.51565 2.52915ZM17.4356 7.15112C17.101 5.8936 16.159 4.94465 14.8921 4.58888C14.5783 4.50076 14.5725 4.50064 11.14 4.49286C8.33071 4.4865 7.64716 4.49518 7.40101 4.54028C6.05096 4.7878 4.96807 5.80028 4.60866 7.15112L4.51979 7.48508V11.0015V14.5178L4.60866 14.8518C4.95079 16.1376 5.92901 17.0989 7.23745 17.4349C7.48344 17.4981 7.79838 17.5038 11.0221 17.5038H14.5385L14.8725 17.4149C16.1397 17.0778 17.0984 16.119 17.4356 14.8518L17.5245 14.5178V11.0015V7.48508L17.4356 7.15112ZM6.38468 6.36401C6.72021 6.02852 7.0247 5.85026 7.45476 5.73758C7.72566 5.66662 7.92167 5.66234 11.006 5.6603C14.1323 5.65821 14.2834 5.66144 14.574 5.73573C15.0178 5.84928 15.3193 6.02368 15.6596 6.36401C15.9999 6.70433 16.1743 7.00575 16.2879 7.44956C16.3621 7.73975 16.3655 7.8951 16.3655 11.0015C16.3655 14.1078 16.3621 14.2632 16.2879 14.5534C16.1743 14.9972 15.9999 15.2986 15.6596 15.6389C15.3193 15.9792 15.0178 16.1536 14.574 16.2672C14.2838 16.3414 14.1285 16.3448 11.0221 16.3448C7.91578 16.3448 7.76043 16.3414 7.47024 16.2672C7.02643 16.1536 6.72501 15.9792 6.38468 15.6389C6.04436 15.2986 5.86996 14.9972 5.75641 14.5534C5.68219 14.2632 5.67881 14.1078 5.67881 11.0015C5.67881 7.8951 5.68219 7.73975 5.75641 7.44956C5.86996 7.00575 6.04436 6.70433 6.38468 6.36401ZM14.9903 7.62259C14.9903 7.42764 14.8514 7.20129 14.677 7.11234C14.4731 7.00831 14.2981 7.01271 14.11 7.12657C13.8286 7.29689 13.7411 7.60523 13.8908 7.89864C13.9797 8.07296 14.206 8.21193 14.401 8.21193C14.7 8.21193 14.9903 7.92154 14.9903 7.62259ZM13.1014 8.93253C12.68 8.5055 12.1875 8.23802 11.5989 8.11642C10.0268 7.79169 8.46308 8.8325 8.13753 10.4203C7.71898 12.4618 9.56419 14.3068 11.6032 13.8856C12.7003 13.659 13.5753 12.831 13.8788 11.7322C13.9695 11.4035 13.9695 10.5995 13.8788 10.2707C13.7351 9.75041 13.487 9.3233 13.1014 8.93253ZM9.7817 9.76149C10.0341 9.50961 10.2825 9.3673 10.608 9.28825C11.2138 9.14108 11.8141 9.31257 12.2626 9.76102C12.9597 10.4582 12.9592 11.5409 12.2615 12.2419C11.5675 12.9391 10.4827 12.9386 9.7817 12.2408C9.08428 11.5466 9.08428 10.4575 9.7817 9.76149Z" fill="url(#paint0_linear_1_2402)"/>
<rect x="1.57046" y="1.55057" width="18.8993" height="18.8993" rx="2.48054" stroke="url(#paint1_linear_1_2402)" stroke-width="1.18121"/>
</g>
<defs>
<linearGradient id="paint0_linear_1_2402" x1="21.0607" y1="10.9997" x2="0.983764" y2="10.9997" gradientUnits="userSpaceOnUse">
<stop stop-color="#001C54"/>
<stop offset="1" stop-color="#001C54"/>
</linearGradient>
<linearGradient id="paint1_linear_1_2402" x1="21.0604" y1="11.0002" x2="0.979858" y2="11.0002" gradientUnits="userSpaceOnUse">
<stop stop-color="#001C54"/>
<stop offset="1" stop-color="#001C54"/>
</linearGradient>
<clipPath id="clip0_1_2402">
<rect width="20.0805" height="20.0805" fill="white" transform="translate(0.979858 0.959961)"/>
</clipPath>
</defs>
</svg>
