<svg width="501" height="17" viewBox="0 0 501 17" fill="none" xmlns="http://www.w3.org/2000/svg">
<path d="M255.048 8.68713C255.048 10.9186 253.239 12.7275 251.007 12.7275C248.776 12.7275 246.967 10.9186 246.967 8.68713C246.967 6.45568 248.776 4.64673 251.007 4.64673C253.239 4.64673 255.048 6.45568 255.048 8.68713Z" fill="#D00000"/>
<path fill-rule="evenodd" clip-rule="evenodd" d="M257.071 8.68724C257.071 12.0344 254.358 14.7478 251.011 14.7478C247.663 14.7478 244.95 12.0344 244.95 8.68724C244.95 5.34007 247.663 2.62664 251.011 2.62664C254.358 2.62664 257.071 5.34007 257.071 8.68724ZM259.029 9.69734C258.532 13.6835 255.131 16.768 251.011 16.768C246.89 16.768 243.489 13.6835 242.992 9.69734H0.505859V7.67714H242.992C243.489 3.69097 246.89 0.606445 251.011 0.606445C255.131 0.606445 258.532 3.69097 259.029 7.67714H500.505V9.69734H259.029Z" fill="url(#paint0_linear_1_2240)"/>
<defs>
<linearGradient id="paint0_linear_1_2240" x1="500.505" y1="8.68724" x2="0.50585" y2="8.69032" gradientUnits="userSpaceOnUse">
<stop stop-color="#001C54"/>
<stop offset="1" stop-color="#001C54"/>
</linearGradient>
</defs>
</svg>
