<svg width="22" height="22" viewBox="0 0 22 22" fill="none" xmlns="http://www.w3.org/2000/svg">
<g clip-path="url(#clip0_1_2407)">
<rect x="1.55032" y="1.55057" width="18.8993" height="18.8993" rx="2.48054" stroke="url(#paint0_linear_1_2407)" stroke-width="1.18121"/>
<path fill-rule="evenodd" clip-rule="evenodd" d="M3.29432 1.02247C2.36995 1.2205 1.5304 1.92028 1.1787 2.78588C0.94913 3.35079 0.9598 2.95085 0.9598 11.0001C0.9598 19.0689 0.948659 18.6597 1.18368 19.2186C1.47736 19.9168 2.08608 20.5251 2.7861 20.8198C3.34241 21.0539 2.93674 21.0429 11.0026 21.0429C18.9772 21.0429 18.6413 21.0512 19.1776 20.8413C19.8521 20.5774 20.4857 19.966 20.7936 19.2822C21.042 18.7307 21.0227 19.3805 21.0357 11.1374C21.0464 4.39646 21.0413 3.61324 20.9849 3.33275C20.7508 2.16947 19.8457 1.25985 18.6832 1.01973C18.4129 0.963903 17.6011 0.957665 10.9748 0.960529C4.55288 0.963275 3.53213 0.971514 3.29432 1.02247ZM8.06037 6.29254V7.46943H6.88348H5.70659V6.29254V5.11565H6.88348H8.06037V6.29254ZM8.06037 12.7654V16.8845H6.88348H5.70659V12.7654V8.64632H6.88348H8.06037V12.7654ZM11.591 8.86668C11.591 9.05823 11.6 9.08428 11.6597 9.06631C11.6974 9.05498 11.9314 8.97416 12.1795 8.88676C12.7243 8.69489 13.1143 8.62922 13.5329 8.65892C14.7474 8.74506 15.7943 9.63993 16.1885 10.9289C16.2754 11.2128 16.2764 11.2457 16.2891 14.0502L16.302 16.8845H15.1245H13.9471L13.9361 14.3837L13.9252 11.8828L13.8157 11.6599C13.6091 11.239 13.2518 11.0213 12.7679 11.0213C12.284 11.0213 11.9268 11.239 11.7201 11.6599L11.6107 11.8828L11.5997 14.3837L11.5888 16.8845H10.413H9.23726V12.7654V8.64632H10.4141H11.591V8.86668Z" fill="url(#paint1_linear_1_2407)"/>
</g>
<defs>
<linearGradient id="paint0_linear_1_2407" x1="21.0403" y1="11.0002" x2="0.959716" y2="11.0002" gradientUnits="userSpaceOnUse">
<stop stop-color="#001C54"/>
<stop offset="1" stop-color="#001C54"/>
</linearGradient>
<linearGradient id="paint1_linear_1_2407" x1="21.0403" y1="11.0015" x2="0.959716" y2="11.0015" gradientUnits="userSpaceOnUse">
<stop stop-color="#001C54"/>
<stop offset="1" stop-color="#001C54"/>
</linearGradient>
<clipPath id="clip0_1_2407">
<rect width="20.0805" height="20.0805" fill="white" transform="translate(0.959717 0.959961)"/>
</clipPath>
</defs>
</svg>
