<svg width="14" height="14" viewBox="0 0 14 14" fill="none" xmlns="http://www.w3.org/2000/svg">
<g clip-path="url(#clip0_1_2224)">
<path d="M4.2586 13.2266C4.22354 12.7006 3.9427 12.2459 3.48813 11.9789C3.03357 11.7121 2.49963 11.6884 2.02325 11.9141L1.71098 12.062C1.53068 12.1474 1.31507 12.0907 1.20012 11.9276C1.08519 11.7645 1.10428 11.5424 1.24537 11.4013L3.86928 8.7774C2.86089 8.31767 1.63062 8.50251 0.800871 9.33226C-0.266957 10.4001 -0.266957 12.1314 0.800871 13.1992C1.74688 14.1453 3.21355 14.253 4.27837 13.5229L4.2586 13.2266Z" fill="#001C54"/>
<path d="M2.85938 10.9483C3.22258 10.9733 3.58054 11.0815 3.90429 11.2716C4.46932 11.6033 4.86706 12.1477 5.01704 12.7733C5.72 11.7117 5.60392 10.2675 4.66868 9.33229C4.63625 9.29986 4.6032 9.26847 4.56959 9.23804L2.85938 10.9483Z" fill="#001C54"/>
<path d="M5.69737 3.66229C5.05665 4.30301 5.05668 5.34177 5.69737 5.98249C6.33806 6.62321 7.37685 6.62321 8.01757 5.98249C8.65826 5.3418 8.65826 4.30301 8.01757 3.66229C7.37688 3.02157 6.33806 3.0216 5.69737 3.66229ZM7.14749 5.11241C6.98731 5.27259 6.72763 5.27259 6.56745 5.11241C6.40727 4.95223 6.40727 4.69255 6.56745 4.53237C6.72763 4.37219 6.98731 4.37219 7.14749 4.53237C7.30765 4.69255 7.30765 4.95223 7.14749 5.11241Z" fill="#001C54"/>
<path d="M8.59759 6.56251C8.4988 6.66131 8.39352 6.74979 8.28327 6.82824L9.4299 7.97487C9.62273 7.78098 9.81824 7.58974 10.0163 7.4012L8.86332 6.24817C8.78487 6.35845 8.69641 6.46372 8.59759 6.56251Z" fill="#001C54"/>
<path d="M8.70508 9.95731L9.8551 11.1073C9.97864 11.2309 10.19 11.1669 10.2243 10.9956L10.3375 10.4296L10.9034 10.3164C11.0747 10.2822 11.1387 10.0708 11.0152 9.94725L9.81452 8.74658L9.45662 9.12688C9.2015 9.39794 8.95054 9.67545 8.70508 9.95731Z" fill="#001C54"/>
<path d="M5.11635 6.56247C4.90906 6.35518 4.74664 6.11975 4.62892 5.86841C4.30298 6.15472 3.97098 6.4344 3.63183 6.70576L3.07522 7.15119C2.84649 7.33422 2.62534 7.52645 2.41211 7.72718C3.42623 7.63594 4.47232 7.97746 5.24695 8.75205C6.02157 9.52667 6.36306 10.5728 6.27182 11.5869C6.47255 11.3737 6.66477 11.1525 6.84781 10.9238L7.29321 10.3672C7.79104 9.74504 8.31338 9.14383 8.85856 8.56453L7.49296 7.19893C6.67191 7.41735 5.75912 7.20524 5.11635 6.56247Z" fill="#001C54"/>
<path d="M11.1687 7.45316L10.5902 7.97406L10.3867 8.15726L12.3699 10.1404C12.4934 10.264 12.7048 10.2 12.7391 10.0286L12.8523 9.46271L13.4182 9.34953C13.5895 9.31527 13.6535 9.10388 13.53 8.98034L11.6119 7.06226C11.4626 7.19126 11.3148 7.32161 11.1687 7.45316Z" fill="#001C54"/>
<path d="M9.33215 0.800871C9.10049 1.03253 8.8845 1.27928 8.68558 1.53954C8.41704 1.89085 8.1398 2.23497 7.85548 2.57294C8.12487 2.6921 8.37714 2.86174 8.59761 3.08221C9.24038 3.72498 9.45249 4.63777 9.23409 5.45882L10.6188 6.84357C11.2115 6.30987 11.8258 5.79958 12.4605 5.31442C12.7207 5.1155 12.9675 4.89948 13.1991 4.66785C14.267 3.60002 14.267 1.8687 13.1991 0.800871C12.1313 -0.266957 10.4 -0.266957 9.33215 0.800871Z" fill="#001C54"/>
</g>
<defs>
<clipPath id="clip0_1_2224">
<rect width="14" height="14" fill="white"/>
</clipPath>
</defs>
</svg>
