<svg width="169" height="47" viewBox="0 0 169 47" fill="none" xmlns="http://www.w3.org/2000/svg">
<g clip-path="url(#clip0_1_2446)">
<path d="M85.1799 7.99028L86.4998 8.00098L86.3084 43.3107L84.9886 43.3L85.1799 7.99028Z" fill="url(#paint0_linear_1_2446)"/>
<path d="M72.2528 8.20308L72.1289 24.1075C72.0987 27.7649 71.8546 29.4563 71.6544 30.2283C71.3875 31.2477 70.9162 32.199 70.2403 33.0524C69.5838 33.886 68.7709 34.5425 67.8112 35.002C66.8613 35.4614 65.7159 35.6846 64.3944 35.6814C63.0826 35.6683 61.8568 35.368 60.7267 34.7806C59.6356 34.2128 58.7962 33.4659 58.2182 32.5397C57.6207 31.5839 57.266 30.5972 57.1734 29.5895C57.0603 28.3546 57.012 26.4669 57.0285 23.9661L57.1525 8.06166L49.4081 8.00181L49.3911 10.4334C52.483 14.6879 54.2974 19.9569 54.2581 25.6505C54.2295 29.634 53.2865 33.3948 51.6418 36.7341C52.0139 37.3055 52.4151 37.857 52.8744 38.3785C54.2425 39.9334 55.9782 41.1601 58.0328 42.0295C60.0484 42.8793 62.3341 43.3225 64.8217 43.3495C68.0186 43.3729 70.871 42.5283 73.2819 40.8358C75.6831 39.1434 77.4018 36.9898 78.38 34.4249C79.3199 31.9689 79.7888 28.6157 79.8247 24.1676L79.9487 8.26318L72.2528 8.20308Z" fill="url(#paint1_linear_1_2446)"/>
<path d="M0.915959 7.58814L0.632812 42.8037L8.33764 42.8692L8.62079 7.6536L0.915959 7.58814Z" fill="url(#paint2_linear_1_2446)"/>
<path d="M28.0752 35.6674C25.5877 35.6503 23.533 34.7513 21.804 32.9314C20.4266 31.4854 19.5917 29.7005 19.2504 27.5178L45.1268 27.7335L45.0978 25.8358C45.0221 20.4493 43.3775 16.0887 40.2229 12.8823C37.0586 9.67599 33.0956 8.0255 28.4217 7.98973C23.7284 7.95405 19.7143 9.65459 16.4958 13.0611C13.3063 16.4378 11.6655 20.5579 11.6214 25.3125C11.5871 30.067 13.1431 34.2007 16.2696 37.6148C19.4157 41.0584 23.4764 42.827 28.3252 42.8619C35.1174 42.9167 40.3383 39.6582 43.8327 33.1566L44.7275 31.4124L36.5163 31.2759C34.4617 34.2614 31.6803 35.6987 28.0752 35.6674ZM28.4005 15.3635C30.6549 15.3818 32.5822 16.0541 34.2894 17.4095C35.4015 18.2935 36.2134 19.3668 36.7545 20.6886L20.2938 20.5441C21.9279 17.027 24.5914 15.3234 28.4005 15.3635Z" fill="#D00000"/>
<path d="M46.0644 41.1917L45.4932 43.5271L44.0166 41.6468L41.6565 41.8168L42.958 39.8138L42.0724 37.5846L44.3491 38.2155L46.1582 36.6745L46.2674 39.0756L48.2753 40.3504L46.0644 41.1917Z" fill="#D00000"/>
<path d="M50.7469 30.5211L51.39 32.8306L49.1898 31.9522L47.234 33.2963L47.3774 30.8939L45.5142 29.4108L47.8041 28.8063L48.6185 26.5488L49.8821 28.5784L52.2435 28.6653L50.7469 30.5211Z" fill="#D00000"/>
<path d="M50.0717 18.1805L51.79 19.8323L49.4601 20.2196L48.4509 22.399L47.3617 20.2598L45.0186 19.9553L46.6812 18.247L46.2417 15.8771L48.3556 16.9636L50.4289 15.8066L50.0717 18.1805Z" fill="#D00000"/>
<path d="M43.5019 8.12345L45.7976 8.67525L43.969 10.1966L44.1657 12.5973L42.1771 11.2928L39.9958 12.2329L40.5961 9.89735L39.0518 8.07667L41.4121 7.9363L42.6357 5.88424L43.5019 8.12345Z" fill="#D00000"/>
<path d="M32.9504 2.78762L35.2204 2.09422L34.3768 4.34204L35.7178 6.32188L33.3563 6.20528L31.9279 8.12L31.3041 5.79062L29.0751 4.99139L31.0506 3.67682L31.1065 1.27483L32.9504 2.78762Z" fill="#D00000"/>
<path d="M21.0904 3.52069L22.7138 1.77301L23.095 4.14314L25.2376 5.17013L23.1349 6.27779L22.8359 8.66122L21.1563 6.96971L18.8267 7.41632L19.8944 5.26621L18.7567 3.15686L21.0904 3.52069Z" fill="#D00000"/>
<path d="M11.2151 10.1827L11.7571 7.84744L13.253 9.70789L15.613 9.50822L14.331 11.5309L15.2457 13.7501L12.9594 13.139L11.1699 14.7096L11.0315 12.3086L9.01397 11.0536L11.2151 10.1827Z" fill="#D00000"/>
<path d="M93.1924 7.89062L93.1924 15L91.7324 15L91.7324 7.89062L93.1924 7.89062ZM100.351 7.89062L100.351 15L98.8857 15L96.0293 10.2344L96.0293 15L94.5645 15L94.5645 7.89062L96.0293 7.89062L98.8906 12.6611L98.8906 7.89062L100.351 7.89062ZM104.657 7.89062L104.657 15L103.197 15L103.197 7.89062L104.657 7.89062ZM106.845 7.89062L106.845 9.03809L101.044 9.03809L101.044 7.89062L106.845 7.89062ZM112.45 13.8574L112.45 15L108.666 15L108.666 13.8574L112.45 13.8574ZM109.145 7.89062L109.145 15L107.68 15L107.68 7.89062L109.145 7.89062ZM111.957 10.7861L111.957 11.8994L108.666 11.8994L108.666 10.7861L111.957 10.7861ZM112.445 7.89062L112.445 9.03809L108.666 9.03809L108.666 7.89062L112.445 7.89062ZM113.305 7.89062L115.956 7.89062C116.5 7.89062 116.967 7.97201 117.357 8.13477C117.751 8.29753 118.054 8.53841 118.266 8.85742C118.477 9.17643 118.583 9.56868 118.583 10.0342C118.583 10.415 118.518 10.7422 118.388 11.0156C118.261 11.2858 118.08 11.512 117.846 11.6943C117.615 11.8734 117.343 12.0166 117.03 12.124L116.566 12.3682L114.262 12.3682L114.252 11.2256L115.966 11.2256C116.223 11.2256 116.436 11.18 116.605 11.0889C116.775 10.9977 116.902 10.8708 116.986 10.708C117.074 10.5452 117.118 10.3564 117.118 10.1416C117.118 9.91374 117.076 9.7168 116.991 9.55078C116.907 9.38477 116.778 9.25781 116.605 9.16992C116.433 9.08203 116.216 9.03809 115.956 9.03809L114.77 9.03809L114.77 15L113.305 15L113.305 7.89062ZM117.279 15L115.658 11.8311L117.206 11.8213L118.847 14.9316L118.847 15L117.279 15ZM125.497 7.89062L125.497 15L124.032 15L121.176 10.2344L121.176 15L119.711 15L119.711 7.89062L121.176 7.89062L124.037 12.6611L124.037 7.89062L125.497 7.89062ZM129.75 9.10645L127.816 15L126.259 15L128.9 7.89062L129.892 7.89062L129.75 9.10645ZM131.356 15L129.418 9.10645L129.262 7.89062L130.263 7.89062L132.919 15L131.356 15ZM131.269 12.3535L131.269 13.501L127.514 13.501L127.514 12.3535L131.269 12.3535ZM136.151 7.89062L136.151 15L134.691 15L134.691 7.89062L136.151 7.89062ZM138.339 7.89062L138.339 9.03809L132.538 9.03809L132.538 7.89062L138.339 7.89062ZM140.731 7.89062L140.731 15L139.271 15L139.271 7.89062L140.731 7.89062ZM147.943 11.2793L147.943 11.6162C147.943 12.1566 147.87 12.6416 147.724 13.0713C147.577 13.501 147.37 13.8672 147.104 14.1699C146.837 14.4694 146.518 14.6989 146.146 14.8584C145.779 15.0179 145.37 15.0977 144.921 15.0977C144.475 15.0977 144.066 15.0179 143.695 14.8584C143.327 14.6989 143.008 14.4694 142.738 14.1699C142.468 13.8672 142.258 13.501 142.108 13.0713C141.962 12.6416 141.889 12.1566 141.889 11.6162L141.889 11.2793C141.889 10.7357 141.962 10.2507 142.108 9.82422C142.255 9.39453 142.462 9.02832 142.729 8.72559C142.999 8.42285 143.318 8.19173 143.686 8.03223C144.057 7.87272 144.465 7.79297 144.911 7.79297C145.36 7.79297 145.769 7.87272 146.137 8.03223C146.508 8.19173 146.827 8.42285 147.094 8.72559C147.364 9.02832 147.572 9.39453 147.719 9.82422C147.868 10.2507 147.943 10.7357 147.943 11.2793ZM146.464 11.6162L146.464 11.2695C146.464 10.8919 146.43 10.5599 146.361 10.2734C146.293 9.98698 146.192 9.74609 146.059 9.55078C145.925 9.35547 145.762 9.20898 145.57 9.11133C145.378 9.01042 145.159 8.95996 144.911 8.95996C144.664 8.95996 144.444 9.01042 144.252 9.11133C144.063 9.20898 143.902 9.35547 143.769 9.55078C143.638 9.74609 143.539 9.98698 143.471 10.2734C143.402 10.5599 143.368 10.8919 143.368 11.2695L143.368 11.6162C143.368 11.9906 143.402 12.3226 143.471 12.6123C143.539 12.8988 143.64 13.1413 143.773 13.3398C143.907 13.5352 144.07 13.6833 144.262 13.7842C144.454 13.8851 144.674 13.9355 144.921 13.9355C145.168 13.9355 145.388 13.8851 145.58 13.7842C145.772 13.6833 145.933 13.5352 146.063 13.3398C146.194 13.1413 146.293 12.8988 146.361 12.6123C146.43 12.3226 146.464 11.9906 146.464 11.6162ZM154.784 7.89062L154.784 15L153.319 15L150.463 10.2344L150.463 15L148.998 15L148.998 7.89062L150.463 7.89062L153.324 12.6611L153.324 7.89062L154.784 7.89062ZM159.037 9.10645L157.104 15L155.546 15L158.188 7.89062L159.179 7.89062L159.037 9.10645ZM160.644 15L158.705 9.10645L158.549 7.89062L159.55 7.89062L162.206 15L160.644 15ZM160.556 12.3535L160.556 13.501L156.801 13.501L156.801 12.3535L160.556 12.3535ZM167.436 13.8574L167.436 15L163.856 15L163.856 13.8574L167.436 13.8574ZM164.33 7.89062L164.33 15L162.865 15L162.865 7.89062L164.33 7.89062ZM96.4053 23.8574L96.4053 25L92.6211 25L92.6211 23.8574L96.4053 23.8574ZM93.0996 17.8906L93.0996 25L91.6348 25L91.6348 17.8906L93.0996 17.8906ZM95.9121 20.7861L95.9121 21.8994L92.6211 21.8994L92.6211 20.7861L95.9121 20.7861ZM96.4004 17.8906L96.4004 19.0381L92.6211 19.0381L92.6211 17.8906L96.4004 17.8906ZM101.186 17.8906L102.646 17.8906L102.646 22.5879C102.646 23.1348 102.528 23.5954 102.294 23.9697C102.063 24.3441 101.742 24.6257 101.332 24.8145C100.925 25.0033 100.456 25.0977 99.9258 25.0977C99.3952 25.0977 98.9232 25.0033 98.5098 24.8145C98.0996 24.6257 97.7773 24.3441 97.543 23.9697C97.3118 23.5954 97.1963 23.1348 97.1963 22.5879L97.1963 17.8906L98.6611 17.8906L98.6611 22.5879C98.6611 22.9069 98.7116 23.1673 98.8125 23.3691C98.9134 23.571 99.0583 23.7191 99.2471 23.8135C99.4391 23.9079 99.6654 23.9551 99.9258 23.9551C100.193 23.9551 100.419 23.9079 100.604 23.8135C100.793 23.7191 100.937 23.571 101.034 23.3691C101.135 23.1673 101.186 22.9069 101.186 22.5879L101.186 17.8906ZM103.852 17.8906L106.503 17.8906C107.047 17.8906 107.514 17.972 107.904 18.1348C108.298 18.2975 108.601 18.5384 108.813 18.8574C109.024 19.1764 109.13 19.5687 109.13 20.0342C109.13 20.415 109.065 20.7422 108.935 21.0156C108.808 21.2858 108.627 21.512 108.393 21.6943C108.161 21.8734 107.89 22.0166 107.577 22.124L107.113 22.3682L104.809 22.3682L104.799 21.2256L106.513 21.2256C106.77 21.2256 106.983 21.18 107.152 21.0889C107.322 20.9977 107.449 20.8708 107.533 20.708C107.621 20.5452 107.665 20.3564 107.665 20.1416C107.665 19.9137 107.623 19.7168 107.538 19.5508C107.453 19.3848 107.325 19.2578 107.152 19.1699C106.98 19.082 106.763 19.0381 106.503 19.0381L105.316 19.0381L105.316 25L103.852 25L103.852 17.8906ZM107.826 25L106.205 21.8311L107.753 21.8213L109.394 24.9316L109.394 25L107.826 25ZM116.098 21.2793L116.098 21.6162C116.098 22.1566 116.024 22.6416 115.878 23.0713C115.731 23.501 115.525 23.8672 115.258 24.1699C114.991 24.4694 114.672 24.6989 114.301 24.8584C113.933 25.0179 113.524 25.0977 113.075 25.0977C112.629 25.0977 112.221 25.0179 111.85 24.8584C111.482 24.6989 111.163 24.4694 110.893 24.1699C110.622 23.8672 110.412 23.501 110.263 23.0713C110.116 22.6416 110.043 22.1566 110.043 21.6162L110.043 21.2793C110.043 20.7357 110.116 20.2507 110.263 19.8242C110.409 19.3945 110.616 19.0283 110.883 18.7256C111.153 18.4229 111.472 18.1917 111.84 18.0322C112.211 17.8727 112.619 17.793 113.065 17.793C113.515 17.793 113.923 17.8727 114.291 18.0322C114.662 18.1917 114.981 18.4229 115.248 18.7256C115.518 19.0283 115.727 19.3945 115.873 19.8242C116.023 20.2507 116.098 20.7357 116.098 21.2793ZM114.618 21.6162L114.618 21.2695C114.618 20.8919 114.584 20.5599 114.516 20.2734C114.447 19.987 114.346 19.7461 114.213 19.5508C114.079 19.3555 113.917 19.209 113.725 19.1113C113.533 19.0104 113.313 18.96 113.065 18.96C112.818 18.96 112.598 19.0104 112.406 19.1113C112.217 19.209 112.056 19.3555 111.923 19.5508C111.793 19.7461 111.693 19.987 111.625 20.2734C111.557 20.5599 111.522 20.8919 111.522 21.2695L111.522 21.6162C111.522 21.9906 111.557 22.3226 111.625 22.6123C111.693 22.8988 111.794 23.1413 111.928 23.3398C112.061 23.5352 112.224 23.6833 112.416 23.7842C112.608 23.8851 112.828 23.9355 113.075 23.9355C113.323 23.9355 113.542 23.8851 113.734 23.7842C113.926 23.6833 114.088 23.5352 114.218 23.3398C114.348 23.1413 114.447 22.8988 114.516 22.6123C114.584 22.3226 114.618 21.9906 114.618 21.6162ZM119.921 22.4658L118.109 22.4658L118.109 21.3232L119.921 21.3232C120.201 21.3232 120.429 21.2777 120.604 21.1865C120.78 21.0921 120.909 20.9619 120.99 20.7959C121.072 20.6299 121.112 20.4427 121.112 20.2344C121.112 20.0228 121.072 19.8258 120.99 19.6436C120.909 19.4613 120.78 19.3148 120.604 19.2041C120.429 19.0934 120.201 19.0381 119.921 19.0381L118.617 19.0381L118.617 25L117.152 25L117.152 17.8906L119.921 17.8906C120.478 17.8906 120.954 17.9915 121.352 18.1934C121.752 18.3919 122.058 18.667 122.27 19.0186C122.481 19.3701 122.587 19.7721 122.587 20.2246C122.587 20.6836 122.481 21.0807 122.27 21.416C122.058 21.7513 121.752 22.0101 121.352 22.1924C120.954 22.3747 120.478 22.4658 119.921 22.4658ZM128.368 23.8574L128.368 25L124.584 25L124.584 23.8574L128.368 23.8574ZM125.063 17.8906L125.063 25L123.598 25L123.598 17.8906L125.063 17.8906ZM127.875 20.7861L127.875 21.8994L124.584 21.8994L124.584 20.7861L127.875 20.7861ZM128.363 17.8906L128.363 19.0381L124.584 19.0381L124.584 17.8906L128.363 17.8906ZM132.113 19.1064L130.18 25L128.622 25L131.264 17.8906L132.255 17.8906L132.113 19.1064ZM133.72 25L131.781 19.1064L131.625 17.8906L132.626 17.8906L135.282 25L133.72 25ZM133.632 22.3535L133.632 23.501L129.877 23.501L129.877 22.3535L133.632 22.3535ZM141.728 17.8906L141.728 25L140.263 25L137.406 20.2344L137.406 25L135.941 25L135.941 17.8906L137.406 17.8906L140.268 22.6611L140.268 17.8906L141.728 17.8906ZM95.5605 26.8906L97.0205 26.8906L97.0205 31.5879C97.0205 32.1348 96.9033 32.5954 96.6689 32.9697C96.4378 33.3441 96.1172 33.6257 95.707 33.8145C95.3001 34.0033 94.8314 34.0977 94.3008 34.0977C93.7702 34.0977 93.2982 34.0033 92.8848 33.8145C92.4746 33.6257 92.1523 33.3441 91.918 32.9697C91.6868 32.5954 91.5713 32.1348 91.5713 31.5879L91.5713 26.8906L93.0361 26.8906L93.0361 31.5879C93.0361 31.9069 93.0866 32.1673 93.1875 32.3691C93.2884 32.571 93.4333 32.7191 93.6221 32.8135C93.8141 32.9079 94.0404 32.9551 94.3008 32.9551C94.5677 32.9551 94.7939 32.9079 94.9795 32.8135C95.1683 32.7191 95.3115 32.571 95.4092 32.3691C95.5101 32.1673 95.5605 31.9069 95.5605 31.5879L95.5605 26.8906ZM104.013 26.8906L104.013 34L102.548 34L99.6914 29.2344L99.6914 34L98.2266 34L98.2266 26.8906L99.6914 26.8906L102.553 31.6611L102.553 26.8906L104.013 26.8906ZM106.845 26.8906L106.845 34L105.385 34L105.385 26.8906L106.845 26.8906ZM110.78 32.5156L112.455 26.8906L114.086 26.8906L111.61 34L110.536 34L110.78 32.5156ZM109.237 26.8906L110.907 32.5156L111.161 34L110.077 34L107.616 26.8906L109.237 26.8906ZM119.521 32.8574L119.521 34L115.736 34L115.736 32.8574L119.521 32.8574ZM116.215 26.8906L116.215 34L114.75 34L114.75 26.8906L116.215 26.8906ZM119.027 29.7861L119.027 30.8994L115.736 30.8994L115.736 29.7861L119.027 29.7861ZM119.516 26.8906L119.516 28.0381L115.736 28.0381L115.736 26.8906L119.516 26.8906ZM120.375 26.8906L123.026 26.8906C123.57 26.8906 124.037 26.972 124.428 27.1348C124.822 27.2975 125.124 27.5384 125.336 27.8574C125.548 28.1764 125.653 28.5687 125.653 29.0342C125.653 29.415 125.588 29.7422 125.458 30.0156C125.331 30.2858 125.15 30.512 124.916 30.6943C124.685 30.8734 124.413 31.0166 124.101 31.124L123.637 31.3682L121.332 31.3682L121.322 30.2256L123.036 30.2256C123.293 30.2256 123.507 30.18 123.676 30.0889C123.845 29.9977 123.972 29.8708 124.057 29.708C124.145 29.5452 124.188 29.3564 124.188 29.1416C124.188 28.9137 124.146 28.7168 124.062 28.5508C123.977 28.3848 123.848 28.2578 123.676 28.1699C123.503 28.082 123.287 28.0381 123.026 28.0381L121.84 28.0381L121.84 34L120.375 34L120.375 26.8906ZM124.35 34L122.729 30.8311L124.276 30.8213L125.917 33.9316L125.917 34L124.35 34ZM130.482 32.1396C130.482 32.0127 130.463 31.8988 130.424 31.7979C130.388 31.6937 130.32 31.5993 130.219 31.5146C130.118 31.4268 129.976 31.3405 129.794 31.2559C129.612 31.1712 129.376 31.0833 129.086 30.9922C128.764 30.888 128.458 30.7708 128.168 30.6406C127.882 30.5104 127.628 30.359 127.406 30.1865C127.188 30.0107 127.016 29.8073 126.889 29.5762C126.765 29.3451 126.703 29.0765 126.703 28.7705C126.703 28.4743 126.768 28.2057 126.898 27.9648C127.029 27.7207 127.211 27.5124 127.445 27.3398C127.68 27.1641 127.956 27.029 128.275 26.9346C128.598 26.8402 128.951 26.793 129.335 26.793C129.859 26.793 130.316 26.8874 130.707 27.0762C131.098 27.265 131.4 27.5238 131.615 27.8525C131.833 28.1813 131.942 28.5573 131.942 28.9805L130.487 28.9805C130.487 28.7721 130.443 28.5898 130.355 28.4336C130.271 28.2741 130.141 28.1488 129.965 28.0576C129.792 27.9665 129.574 27.9209 129.311 27.9209C129.057 27.9209 128.845 27.96 128.676 28.0381C128.507 28.113 128.38 28.2155 128.295 28.3457C128.21 28.4727 128.168 28.6159 128.168 28.7754C128.168 28.8958 128.197 29.0049 128.256 29.1025C128.318 29.2002 128.409 29.2913 128.529 29.376C128.65 29.4606 128.798 29.5404 128.974 29.6152C129.149 29.6901 129.353 29.7633 129.584 29.835C129.971 29.9521 130.312 30.084 130.604 30.2305C130.901 30.377 131.148 30.5413 131.347 30.7236C131.545 30.9059 131.695 31.1126 131.796 31.3437C131.897 31.5749 131.947 31.8369 131.947 32.1299C131.947 32.4391 131.887 32.7158 131.767 32.96C131.646 33.2041 131.472 33.4108 131.244 33.5801C131.016 33.7493 130.744 33.8779 130.429 33.9658C130.113 34.0537 129.76 34.0977 129.369 34.0977C129.018 34.0977 128.671 34.0521 128.329 33.9609C127.987 33.8665 127.676 33.7249 127.396 33.5361C127.12 33.3473 126.898 33.1064 126.732 32.8135C126.566 32.5205 126.483 32.1738 126.483 31.7734L127.953 31.7734C127.953 31.9948 127.987 32.182 128.056 32.335C128.124 32.488 128.22 32.6117 128.344 32.7061C128.471 32.8005 128.62 32.8688 128.793 32.9111C128.969 32.9535 129.161 32.9746 129.369 32.9746C129.623 32.9746 129.831 32.9388 129.994 32.8672C130.16 32.7956 130.282 32.6963 130.36 32.5693C130.442 32.4424 130.482 32.2992 130.482 32.1396ZM134.501 26.8906L134.501 34L133.041 34L133.041 26.8906L134.501 26.8906ZM138.905 26.8906L138.905 34L137.445 34L137.445 26.8906L138.905 26.8906ZM141.093 26.8906L141.093 28.0381L135.292 28.0381L135.292 26.8906L141.093 26.8906ZM142.982 26.8906L144.467 30.1328L145.951 26.8906L147.548 26.8906L145.209 31.4121L145.209 34L143.725 34L143.725 31.4121L141.381 26.8906L142.982 26.8906ZM148.339 32.8135L148.334 33.7559C148.334 34.1172 148.243 34.4818 148.061 34.8496C147.882 35.2174 147.654 35.5186 147.377 35.7529L146.645 35.377C146.726 35.2272 146.806 35.0775 146.884 34.9277C146.962 34.778 147.027 34.6136 147.079 34.4346C147.131 34.2555 147.157 34.0521 147.157 33.8242L147.157 32.8135L148.339 32.8135Z" fill="url(#paint3_linear_1_2446)"/>
<path d="M92.3037 36.8906L93.5439 36.8906L95.3701 42.1104L97.1963 36.8906L98.4365 36.8906L95.8682 44L94.8721 44L92.3037 36.8906ZM91.6348 36.8906L92.8701 36.8906L93.0947 41.9785L93.0947 44L91.6348 44L91.6348 36.8906ZM97.8701 36.8906L99.1104 36.8906L99.1104 44L97.6455 44L97.6455 41.9785L97.8701 36.8906ZM103.373 38.1064L101.439 44L99.8818 44L102.523 36.8906L103.515 36.8906L103.373 38.1064ZM104.979 44L103.041 38.1064L102.885 36.8906L103.886 36.8906L106.542 44L104.979 44ZM104.892 41.3535L104.892 42.501L101.137 42.501L101.137 41.3535L104.892 41.3535ZM111.771 42.8574L111.771 44L108.192 44L108.192 42.8574L111.771 42.8574ZM108.666 36.8906L108.666 44L107.201 44L107.201 36.8906L108.666 36.8906ZM114.677 36.8906L114.677 44L113.217 44L113.217 36.8906L114.677 36.8906ZM116.864 36.8906L116.864 38.0381L111.063 38.0381L111.063 36.8906L116.864 36.8906ZM120.063 38.1064L118.129 44L116.571 44L119.213 36.8906L120.204 36.8906L120.063 38.1064ZM121.669 44L119.73 38.1064L119.574 36.8906L120.575 36.8906L123.231 44L121.669 44ZM121.581 41.3535L121.581 42.501L117.826 42.501L117.826 41.3535L121.581 41.3535ZM130.502 41.6416L131.962 41.6416C131.933 42.1201 131.801 42.5449 131.566 42.916C131.335 43.2871 131.011 43.5768 130.595 43.7852C130.181 43.9935 129.683 44.0977 129.101 44.0977C128.645 44.0977 128.236 44.0195 127.875 43.8633C127.514 43.7038 127.204 43.4759 126.947 43.1797C126.693 42.8835 126.5 42.5254 126.366 42.1055C126.233 41.6855 126.166 41.2152 126.166 40.6943L126.166 40.2012C126.166 39.6803 126.234 39.21 126.371 38.79C126.511 38.3669 126.71 38.0072 126.967 37.7109C127.227 37.4147 127.538 37.1868 127.899 37.0273C128.261 36.8678 128.664 36.7881 129.11 36.7881C129.703 36.7881 130.202 36.8955 130.609 37.1104C131.02 37.3252 131.337 37.6214 131.562 37.999C131.789 38.3766 131.926 38.8063 131.972 39.2881L130.507 39.2881C130.491 39.0016 130.434 38.7591 130.336 38.5605C130.238 38.3587 130.09 38.2074 129.892 38.1064C129.696 38.0023 129.436 37.9502 129.11 37.9502C128.866 37.9502 128.653 37.9958 128.471 38.0869C128.288 38.1781 128.135 38.3164 128.012 38.502C127.888 38.6875 127.795 38.9219 127.733 39.2051C127.675 39.485 127.646 39.8138 127.646 40.1914L127.646 40.6943C127.646 41.0622 127.673 41.3861 127.729 41.666C127.784 41.9427 127.868 42.1771 127.982 42.3691C128.1 42.5579 128.249 42.7012 128.432 42.7988C128.617 42.8932 128.84 42.9404 129.101 42.9404C129.407 42.9404 129.659 42.8916 129.857 42.7939C130.056 42.6963 130.207 42.5514 130.312 42.3594C130.419 42.1673 130.482 41.9281 130.502 41.6416ZM135.814 38.1064L133.881 44L132.323 44L134.965 36.8906L135.956 36.8906L135.814 38.1064ZM137.421 44L135.482 38.1064L135.326 36.8906L136.327 36.8906L138.983 44L137.421 44ZM137.333 41.3535L137.333 42.501L133.578 42.501L133.578 41.3535L137.333 41.3535ZM140.312 36.8906L141.552 36.8906L143.378 42.1104L145.204 36.8906L146.444 36.8906L143.876 44L142.88 44L140.312 36.8906ZM139.643 36.8906L140.878 36.8906L141.103 41.9785L141.103 44L139.643 44L139.643 36.8906ZM145.878 36.8906L147.118 36.8906L147.118 44L145.653 44L145.653 41.9785L145.878 36.8906ZM151.171 41.4658L149.359 41.4658L149.359 40.3232L151.171 40.3232C151.451 40.3232 151.679 40.2777 151.854 40.1865C152.03 40.0921 152.159 39.9619 152.24 39.7959C152.322 39.6299 152.362 39.4427 152.362 39.2344C152.362 39.0228 152.322 38.8258 152.24 38.6436C152.159 38.4613 152.03 38.3148 151.854 38.2041C151.679 38.0934 151.451 38.0381 151.171 38.0381L149.867 38.0381L149.867 44L148.402 44L148.402 36.8906L151.171 36.8906C151.728 36.8906 152.204 36.9915 152.602 37.1934C153.002 37.3919 153.308 37.667 153.52 38.0186C153.731 38.3701 153.837 38.7721 153.837 39.2246C153.837 39.6836 153.731 40.0807 153.52 40.416C153.308 40.7513 153.002 41.0101 152.602 41.1924C152.204 41.3747 151.728 41.4658 151.171 41.4658ZM158.773 36.8906L160.233 36.8906L160.233 41.5879C160.233 42.1348 160.116 42.5954 159.882 42.9697C159.651 43.3441 159.33 43.6257 158.92 43.8145C158.513 44.0033 158.044 44.0977 157.514 44.0977C156.983 44.0977 156.511 44.0033 156.098 43.8145C155.688 43.6257 155.365 43.3441 155.131 42.9697C154.9 42.5954 154.784 42.1348 154.784 41.5879L154.784 36.8906L156.249 36.8906L156.249 41.5879C156.249 41.9069 156.299 42.1673 156.4 42.3691C156.501 42.571 156.646 42.7191 156.835 42.8135C157.027 42.9079 157.253 42.9551 157.514 42.9551C157.781 42.9551 158.007 42.9079 158.192 42.8135C158.381 42.7191 158.524 42.571 158.622 42.3691C158.723 42.1673 158.773 41.9069 158.773 41.5879L158.773 36.8906ZM165.141 42.1396C165.141 42.0127 165.121 41.8988 165.082 41.7979C165.046 41.6937 164.978 41.5993 164.877 41.5146C164.776 41.4268 164.634 41.3405 164.452 41.2559C164.27 41.1712 164.034 41.0833 163.744 40.9922C163.422 40.888 163.116 40.7708 162.826 40.6406C162.54 40.5104 162.286 40.359 162.064 40.1865C161.846 40.0107 161.674 39.8073 161.547 39.5762C161.423 39.3451 161.361 39.0765 161.361 38.7705C161.361 38.4743 161.426 38.2057 161.557 37.9648C161.687 37.7207 161.869 37.5124 162.104 37.3398C162.338 37.1641 162.615 37.029 162.934 36.9346C163.256 36.8402 163.609 36.793 163.993 36.793C164.517 36.793 164.975 36.8874 165.365 37.0762C165.756 37.265 166.059 37.5238 166.273 37.8525C166.492 38.1813 166.601 38.5573 166.601 38.9805L165.146 38.9805C165.146 38.7721 165.102 38.5898 165.014 38.4336C164.929 38.2741 164.799 38.1488 164.623 38.0576C164.451 37.9665 164.232 37.9209 163.969 37.9209C163.715 37.9209 163.503 37.96 163.334 38.0381C163.165 38.113 163.038 38.2155 162.953 38.3457C162.868 38.4727 162.826 38.6159 162.826 38.7754C162.826 38.8958 162.855 39.0049 162.914 39.1025C162.976 39.2002 163.067 39.2913 163.188 39.376C163.308 39.4606 163.456 39.5404 163.632 39.6152C163.808 39.6901 164.011 39.7633 164.242 39.835C164.63 39.9521 164.97 40.084 165.263 40.2305C165.559 40.377 165.806 40.5413 166.005 40.7236C166.203 40.9059 166.353 41.1126 166.454 41.3437C166.555 41.5749 166.605 41.8369 166.605 42.1299C166.605 42.4391 166.545 42.7158 166.425 42.96C166.304 43.2041 166.13 43.4108 165.902 43.5801C165.674 43.7493 165.403 43.8779 165.087 43.9658C164.771 44.0537 164.418 44.0977 164.027 44.0977C163.676 44.0977 163.329 44.0521 162.987 43.9609C162.646 43.8665 162.335 43.7249 162.055 43.5361C161.778 43.3473 161.557 43.1064 161.391 42.8135C161.225 42.5205 161.142 42.1738 161.142 41.7734L162.611 41.7734C162.611 41.9948 162.646 42.182 162.714 42.335C162.782 42.488 162.878 42.6117 163.002 42.7061C163.129 42.8005 163.279 42.8688 163.451 42.9111C163.627 42.9535 163.819 42.9746 164.027 42.9746C164.281 42.9746 164.49 42.9388 164.652 42.8672C164.818 42.7956 164.94 42.6963 165.019 42.5693C165.1 42.4424 165.141 42.2992 165.141 42.1396Z" fill="#D00000"/>
</g>
<defs>
<linearGradient id="paint0_linear_1_2446" x1="86.4515" y1="25.6562" x2="85.0366" y2="25.6447" gradientUnits="userSpaceOnUse">
<stop stop-color="#001C54"/>
<stop offset="1" stop-color="#001C54"/>
</linearGradient>
<linearGradient id="paint1_linear_1_2446" x1="80.0358" y1="25.5609" x2="49.4681" y2="25.7148" gradientUnits="userSpaceOnUse">
<stop stop-color="#001C54"/>
<stop offset="1" stop-color="#001C54"/>
</linearGradient>
<linearGradient id="paint2_linear_1_2446" x1="4.76837" y1="7.62088" x2="4.46923" y2="42.8363" gradientUnits="userSpaceOnUse">
<stop stop-color="#001C54"/>
<stop offset="1" stop-color="#001C54"/>
</linearGradient>
<linearGradient id="paint3_linear_1_2446" x1="180" y1="25" x2="91" y2="25" gradientUnits="userSpaceOnUse">
<stop stop-color="#001C54"/>
<stop offset="1" stop-color="#001C54"/>
</linearGradient>
<clipPath id="clip0_1_2446">
<rect width="168.157" height="45.0361" fill="white" transform="translate(0.423828 1.42969) rotate(-0.288471)"/>
</clipPath>
</defs>
</svg>
