<svg width="32" height="32" viewBox="0 0 32 32" fill="none" xmlns="http://www.w3.org/2000/svg">
<path d="M8.33279 10.9441C10.5288 12.7474 14.382 15.92 15.5145 16.9092C15.6665 17.0428 15.8296 17.1106 15.9989 17.1106C16.1678 17.1106 16.3306 17.0434 16.4823 16.9105C17.6158 15.9203 21.469 12.7474 23.665 10.9441C23.8017 10.832 23.8225 10.6351 23.7119 10.4981C23.456 10.1815 23.0745 10 22.6656 10H9.33215C8.9233 10 8.54176 10.1815 8.28592 10.4981C8.17523 10.6351 8.19607 10.832 8.33279 10.9441Z" fill="url(#paint0_linear_2_3335)"/>
<path d="M23.8057 11.9208C23.6876 11.8674 23.5486 11.886 23.4503 11.9675C22.0121 13.1496 20.1172 14.7114 18.6882 15.9033C18.613 15.9658 18.5707 16.0577 18.5723 16.1539C18.5739 16.2499 18.6198 16.3405 18.6973 16.4005C20.0251 17.4317 22.0261 18.8502 23.4711 19.8584C23.5287 19.8988 23.5971 19.9193 23.6658 19.9193C23.7179 19.9193 23.7699 19.9076 23.8178 19.8836C23.9292 19.8284 23.9991 19.7173 23.9991 19.5961V12.214C23.9991 12.0881 23.9236 11.9735 23.8057 11.9208Z" fill="url(#paint1_linear_2_3335)"/>
<path d="M8.52801 19.8594C9.97333 18.8512 11.9747 17.4326 13.3021 16.4014C13.3796 16.3414 13.4255 16.2508 13.4272 16.1549C13.4288 16.0586 13.3865 15.9668 13.3113 15.9043C11.8822 14.7124 9.98699 13.1505 8.54885 11.9684C8.44988 11.887 8.31057 11.869 8.19338 11.9217C8.07553 11.9744 8 12.089 8 12.2149V19.5971C8 19.7183 8.07 19.8294 8.18131 19.8846C8.22916 19.9086 8.28125 19.9203 8.33335 19.9203C8.40204 19.9203 8.47038 19.8998 8.52801 19.8594Z" fill="url(#paint2_linear_2_3335)"/>
<path d="M23.5917 20.7378C22.1962 19.7697 19.6255 17.9648 18.091 16.7571C17.966 16.6583 17.785 16.6615 17.6619 16.7644C17.3608 17.0191 17.1089 17.2338 16.9301 17.3897C16.3813 17.8701 15.6196 17.8701 15.0694 17.3891C14.8914 17.2335 14.6394 17.0182 14.3383 16.7644C14.2162 16.6608 14.0349 16.6577 13.9096 16.7571C12.3802 17.9607 9.80666 19.7678 8.40886 20.7378C8.33105 20.7921 8.28092 20.8757 8.27117 20.9682C8.26173 21.0607 8.2933 21.1525 8.35873 21.2207C8.61105 21.4843 8.96652 21.6355 9.3334 21.6355H22.6669C23.0338 21.6355 23.3889 21.4843 23.6418 21.2207C23.7069 21.1529 23.7388 21.061 23.7294 20.9685C23.7196 20.8761 23.6695 20.7921 23.5917 20.7378Z" fill="url(#paint3_linear_2_3335)"/>
<rect x="0.75" y="0.75" width="30.5" height="30.5" rx="5.25" stroke="url(#paint4_linear_2_3335)" stroke-width="1.5"/>
<defs>
<linearGradient id="paint0_linear_2_3335" x1="23.7829" y1="13.5553" x2="8.21484" y2="13.5553" gradientUnits="userSpaceOnUse">
<stop stop-color="#001C54"/>
<stop offset="1" stop-color="#001C54"/>
</linearGradient>
<linearGradient id="paint1_linear_2_3335" x1="23.9991" y1="15.905" x2="18.5723" y2="15.905" gradientUnits="userSpaceOnUse">
<stop stop-color="#001C54"/>
<stop offset="1" stop-color="#001C54"/>
</linearGradient>
<linearGradient id="paint2_linear_2_3335" x1="13.4272" y1="15.9061" x2="8" y2="15.9061" gradientUnits="userSpaceOnUse">
<stop stop-color="#001C54"/>
<stop offset="1" stop-color="#001C54"/>
</linearGradient>
<linearGradient id="paint3_linear_2_3335" x1="23.731" y1="19.16" x2="8.26953" y2="19.16" gradientUnits="userSpaceOnUse">
<stop stop-color="#001C54"/>
<stop offset="1" stop-color="#001C54"/>
</linearGradient>
<linearGradient id="paint4_linear_2_3335" x1="32" y1="16" x2="-6.2724e-07" y2="16" gradientUnits="userSpaceOnUse">
<stop stop-color="#001C54"/>
<stop offset="1" stop-color="#001C54"/>
</linearGradient>
</defs>
</svg>
