<svg width="14" height="14" viewBox="0 0 14 14" fill="none" xmlns="http://www.w3.org/2000/svg">
<g clip-path="url(#clip0_1_2339)">
<path fill-rule="evenodd" clip-rule="evenodd" d="M3.85742 0.583797C1.55582 1.02286 0.789914 1.17883 0.736976 1.2193C0.698408 1.24881 0.645306 1.31704 0.619001 1.37096C0.575205 1.46066 0.571127 1.59859 0.571099 2.99404C0.571045 4.67939 0.567787 4.64606 0.745488 4.77844C0.864941 4.8674 1.09832 4.8674 1.21777 4.77844C1.39208 4.64857 1.39221 4.64746 1.39221 3.29823V2.07739L1.4538 2.09288C1.48766 2.10137 2.75152 2.34273 4.26236 2.62919L7.00931 3.15004L10.0653 2.57093C11.7461 2.25242 13.1615 1.9723 13.2107 1.94843C13.4745 1.82048 13.5075 1.40091 13.2681 1.21773C13.2124 1.17517 12.4962 1.02949 10.134 0.58031C8.44986 0.260112 7.03501 -0.0010545 6.98985 3.20141e-06C6.94468 0.0010609 5.53509 0.263743 3.85742 0.583797ZM3.03455 4.63048V5.99995H7.00353H10.9725V4.63048C10.9725 3.34085 10.9697 3.26167 10.9246 3.27259C10.6853 3.33056 7.07719 3.99889 7.00353 3.99889C6.92987 3.99889 3.32177 3.33056 3.08245 3.27259C3.03734 3.26167 3.03455 3.34085 3.03455 4.63048ZM1.7033 6.88867C1.46817 6.95985 1.20986 7.2382 1.1448 7.49056C1.12618 7.5628 1.11863 7.92633 1.12391 8.49558C1.1319 9.358 1.13423 9.39142 1.19393 9.50814C1.28598 9.68806 1.39884 9.8095 1.5614 9.90355L1.70699 9.98777L7.13569 9.9952C13.1536 10.0034 12.6784 10.0181 12.8138 9.81988C12.899 9.69513 12.899 9.4514 12.8138 9.32664C12.7186 9.1872 12.602 9.14446 12.3165 9.14446H12.0674V9.00153V8.8586H7.587C3.11894 8.8586 3.10627 8.85843 2.9901 8.79971C2.86709 8.73751 2.76083 8.5661 2.76083 8.4298C2.76083 8.2935 2.86709 8.1221 2.9901 8.05989C3.10627 8.00117 3.11894 8.001 7.587 8.001H12.0674V7.85807V7.71514H12.3165C12.602 7.71514 12.7186 7.6724 12.8138 7.53296C12.899 7.4082 12.899 7.16447 12.8138 7.03972C12.679 6.84239 13.1461 6.85725 7.17732 6.86011C4.03558 6.86163 1.75334 6.87352 1.7033 6.88867ZM0.581036 10.8908C0.345908 10.962 0.0875953 11.2403 0.0225314 11.4927C0.00391822 11.5649 -0.00363654 11.9284 0.00164631 12.4977C0.00963902 13.3601 0.0119657 13.3935 0.0716646 13.5103C0.163718 13.6902 0.276574 13.8116 0.439138 13.9057L0.584731 13.9899L7.1358 13.9973C13.1459 14.004 13.6946 14.0008 13.7809 13.958C13.9269 13.8857 13.9972 13.7613 13.9972 13.5754C13.9972 13.2682 13.8387 13.1466 13.4387 13.1466H13.1897V13.0036V12.8607H7.587C1.98578 12.8607 1.98428 12.8607 1.86783 12.8018C1.74482 12.7396 1.63856 12.5682 1.63856 12.4319C1.63856 12.2956 1.74482 12.1242 1.86783 12.062C1.98428 12.0031 1.98578 12.0031 7.587 12.0031H13.1897V11.8602V11.7173H13.4387C13.7242 11.7173 13.8409 11.6745 13.9361 11.5351C14.0213 11.4103 14.0213 11.1666 13.9361 11.0418C13.8008 10.8437 14.3912 10.8594 7.17732 10.8622C3.36258 10.8637 0.631318 10.8756 0.581036 10.8908Z" fill="white"/>
</g>
<defs>
<clipPath id="clip0_1_2339">
<rect width="14" height="14" fill="white"/>
</clipPath>
</defs>
</svg>
