<svg width="14" height="14" viewBox="0 0 14 14" fill="none" xmlns="http://www.w3.org/2000/svg">
<path d="M6.33749 0.797895L6.65425 1.14277L6.93645 0.712809C6.94436 0.700789 6.95435 0.69113 6.96569 0.684551C6.97702 0.677972 6.98941 0.674642 7.00194 0.674811C7.01446 0.674979 7.02679 0.678641 7.03801 0.685523C7.04923 0.692405 7.05905 0.702331 7.06674 0.714561L7.33604 1.14267L7.66304 0.792848C7.67588 0.779138 7.6918 0.770609 7.70866 0.768402C7.72553 0.766194 7.74254 0.770414 7.75741 0.780497C7.77229 0.790579 7.78432 0.806043 7.7919 0.824818C7.79948 0.843593 7.80224 0.864785 7.79981 0.885556L7.67494 1.95139H6.32692L6.20013 0.890397C6.19761 0.869511 6.20034 0.848171 6.20795 0.829268C6.21556 0.810366 6.22768 0.794814 6.24267 0.784719C6.25766 0.774624 6.2748 0.770474 6.29176 0.772831C6.30872 0.775187 6.32468 0.783937 6.33749 0.797895Z" fill="white"/>
<path fill-rule="evenodd" clip-rule="evenodd" d="M6.29599 1.52098C6.1785 1.55065 6.07016 1.61304 6.01414 1.68326C5.98599 1.71857 5.93104 1.746 5.83218 1.77413C5.66129 1.82273 5.52437 1.89875 5.46862 1.97595C5.44594 2.00737 5.4175 2.07955 5.40542 2.1364C5.38409 2.23672 5.38565 2.24438 5.4592 2.39894L5.53495 2.55816L5.55665 2.49456C5.59503 2.38215 5.66051 2.35185 5.86501 2.35185C6.00447 2.35185 6.07211 2.36192 6.17093 2.39736C6.29462 2.44175 6.42468 2.52108 6.42468 2.55217C6.42468 2.56068 6.30391 2.57835 6.15629 2.59145C6.00869 2.60454 5.88646 2.61662 5.88471 2.6183C5.88295 2.61997 5.98396 2.67334 6.10917 2.73686C6.38589 2.87726 6.56314 3.0339 6.60079 3.17137C6.6516 3.35679 6.57394 3.61411 6.43777 3.71138C6.32251 3.79374 6.22988 3.81187 5.94159 3.80858L5.68296 3.80559V3.90264C5.68296 3.95602 5.69541 4.02307 5.71064 4.05167C5.74696 4.11992 5.87157 4.23567 5.95134 4.27527C5.98624 4.29259 6.01478 4.31027 6.01478 4.31456C6.01478 4.31883 5.94691 4.3593 5.86394 4.40446C5.73919 4.47238 5.69448 4.48676 5.60531 4.48762C5.54604 4.4882 5.47337 4.482 5.44385 4.47386C5.39295 4.45982 5.39018 4.4624 5.39018 4.52395C5.39018 4.66492 5.54789 4.80168 5.81961 4.89633C5.90542 4.92621 5.97567 4.95533 5.97568 4.96105C5.97578 4.97963 5.77306 5.09282 5.68296 5.12451C5.56813 5.16489 5.36627 5.16428 5.24379 5.12318C5.0443 5.05622 4.79882 4.91906 4.68182 4.80918C4.61811 4.74937 4.50254 4.60513 4.42497 4.48866C4.3474 4.3722 4.2241 4.18687 4.15099 4.07683C4.07787 3.9668 4.00081 3.82386 3.97977 3.7592C3.93097 3.60926 3.92746 3.40297 3.97151 3.27588C4.00001 3.19362 4.01884 3.17202 4.10098 3.12736C4.35082 2.99151 4.40003 2.63214 4.22053 2.25418C4.14339 2.09176 4.10166 2.04152 3.97977 1.96442C3.61451 1.73339 3.12395 1.76952 2.84928 2.04766C2.67671 2.22241 2.59024 2.44687 2.43181 3.1315C2.31714 3.62712 2.22637 3.90799 2.10526 4.14215C2.02398 4.29927 1.97614 4.36359 1.8449 4.49215L1.68412 4.64963L1.78142 4.67021C2.0475 4.7265 2.24599 4.67493 2.40425 4.50841C2.4523 4.45784 2.51164 4.39526 2.5361 4.36933C2.58864 4.31365 2.62624 4.31941 2.63346 4.38427C2.63728 4.41865 2.51853 4.59779 2.18148 5.06612C1.93002 5.4155 1.72862 5.70824 1.73391 5.71669C1.7392 5.72512 1.78449 5.7087 1.83455 5.68019C2.15004 5.50057 2.37889 5.30463 2.55 5.06772L2.6462 4.93448L2.67318 4.99974C2.69892 5.06196 2.69678 5.07126 2.62676 5.20033C2.41779 5.58561 2.16069 5.90625 1.7643 6.27596C1.68662 6.34842 1.62305 6.41108 1.62305 6.4152C1.62305 6.43962 1.83951 6.52452 1.92338 6.53301C2.14264 6.55515 2.31809 6.45289 2.68003 6.09204C2.81586 5.95661 2.94 5.84582 2.95589 5.84582C2.9718 5.84582 2.98905 5.86773 2.99424 5.89449C3.00962 5.97384 2.2292 6.99019 1.78285 7.47211C1.66827 7.59581 1.61335 7.66858 1.62861 7.67643C1.64165 7.68315 1.68527 7.6936 1.72554 7.69969C1.79501 7.71014 1.8124 7.70028 2.06386 7.50799C2.55538 7.13212 2.88357 6.78377 3.03976 6.47208C3.10447 6.34295 3.11842 6.32709 3.16732 6.32709C3.28453 6.32709 3.28913 6.45608 3.17743 6.61005C3.14056 6.66087 2.9903 6.88872 2.84356 7.11636C2.69682 7.344 2.51633 7.60877 2.44245 7.70473C2.28134 7.91408 2.02859 8.15771 1.84991 8.27593L1.71955 8.36219L1.79729 8.43146C1.964 8.57999 2.16614 8.62914 2.40485 8.57919C2.70052 8.5173 3.12912 8.07036 3.54134 7.39407C3.65439 7.20861 3.77012 7.18674 3.77012 7.35081C3.77012 7.41185 3.74301 7.46835 3.63032 7.64203C3.21254 8.28596 2.79591 8.82103 2.34138 9.29736C2.21211 9.43285 2.11123 9.54855 2.11722 9.55446C2.1411 9.578 2.67304 9.2419 2.93081 9.04039C3.12924 8.88529 3.4536 8.5604 3.58328 8.38685C3.7138 8.21221 3.87068 7.9449 3.95605 7.75161C4.02898 7.58653 4.08898 7.50137 4.13235 7.50137C4.18864 7.50137 4.16818 7.58832 4.05476 7.83103C3.73366 8.5181 3.28849 9.20464 2.78192 9.79399C2.69024 9.90064 2.61817 9.99033 2.62175 9.99331C2.62534 9.99627 2.67909 10.0172 2.74124 10.0398C2.94111 10.1126 3.12549 10.0906 3.33094 9.96963C3.77523 9.708 4.12786 9.31071 4.52222 8.62752C4.69324 8.33128 4.79554 8.18128 4.84406 8.15567C4.89752 8.12745 4.89485 8.1447 4.81189 8.36368C4.72541 8.59195 4.55774 8.92516 4.35242 9.27675C4.18097 9.5704 4.14097 9.66492 4.14097 9.77659V9.8524L4.22354 9.80785C4.3442 9.74275 4.54476 9.53678 4.66995 9.34942C4.73007 9.25942 4.85562 9.0458 4.94894 8.8747C5.13938 8.52552 5.21993 8.40614 5.26506 8.40614C5.28199 8.40614 5.29292 8.41275 5.28932 8.42081C5.20163 8.61855 4.70144 9.57469 4.62732 9.6863C4.57107 9.77101 4.43891 9.92509 4.33364 10.0287C4.1171 10.2419 4.11304 10.2126 4.37032 10.294C4.44816 10.3186 4.51132 10.3436 4.51072 10.3494C4.51009 10.3553 4.29328 10.5333 4.0289 10.7451L3.54819 11.1301L3.38101 11.1729C3.24375 11.208 3.20188 11.2118 3.14715 11.1944C3.04681 11.1624 2.92171 11.0371 2.78291 10.8295C2.68212 10.6787 2.64203 10.6352 2.57365 10.6026C2.47342 10.5547 2.43452 10.5534 2.26908 10.5918C2.02145 10.6494 1.85489 10.7656 1.69927 10.9895C1.65734 11.0498 1.62305 11.1037 1.62305 11.1093C1.62305 11.1149 1.64557 11.1111 1.67311 11.1007C1.79378 11.0555 1.84582 11.0742 1.98836 11.2139C2.1749 11.3968 2.24142 11.4173 2.63315 11.4122C2.97478 11.4078 2.97594 11.4085 2.87407 11.5669C2.77017 11.7285 2.51648 11.8506 2.33542 11.8261C2.20986 11.8091 2.11273 11.8449 2.01135 11.9456C1.87414 12.0819 1.83061 12.212 1.83018 12.4873C1.82993 12.6482 1.83986 12.7424 1.86656 12.8321L1.90328 12.9557L1.9274 12.8869C1.98776 12.715 2.06292 12.6631 2.27351 12.6479C2.53741 12.6289 2.57904 12.5985 2.65546 12.3697C2.72748 12.1539 2.85552 11.9892 3.05782 11.8519L3.1518 11.7881L3.13823 12.0845C3.1248 12.378 3.12412 12.3815 3.06777 12.4389C2.99569 12.5124 2.95443 12.6097 2.93842 12.7441C2.92692 12.8405 2.93237 12.8629 3.00004 12.998C3.04087 13.0795 3.11446 13.1866 3.16357 13.236C3.24561 13.3186 3.4707 13.4627 3.48916 13.4445C3.4935 13.4403 3.48821 13.3908 3.47741 13.3347C3.45247 13.205 3.47515 13.1201 3.56398 13.0104C3.69261 12.8516 3.69993 12.7161 3.59183 12.4947C3.52309 12.3538 3.50355 12.1625 3.52553 11.8446L3.53989 11.6367L3.61041 11.6497C3.72017 11.67 3.78204 11.7097 3.85846 11.8087C3.97057 11.954 4.04104 11.9865 4.24407 11.9866C4.50207 11.9868 4.56965 12.0243 4.60012 12.1844C4.60763 12.2239 4.61967 12.2562 4.62689 12.2562C4.64903 12.2562 4.74832 11.9854 4.76645 11.8756C4.7946 11.705 4.74797 11.5322 4.63179 11.3764C4.53184 11.2424 4.39335 11.2297 4.15079 11.3322C4.09924 11.354 4.02156 11.3797 3.97817 11.3893C3.89683 11.4073 3.78964 11.3965 3.78964 11.3703C3.78964 11.3621 3.85395 11.3159 3.93257 11.2676C4.15237 11.1325 4.44611 10.9054 4.62369 10.7332C4.7817 10.58 4.78539 10.5778 4.84681 10.5989C4.96246 10.6387 5.06742 10.7116 5.18935 10.8369L5.31058 10.9616L5.36297 10.8245C5.59993 10.2043 5.68655 9.99439 5.81257 9.73533C5.97162 9.40829 6.03498 9.30145 6.17333 9.12704C6.26706 9.00886 6.4188 8.90666 6.50051 8.90666C6.53679 8.90666 6.54175 8.91773 6.54146 8.9981C6.54015 9.34765 6.32234 9.75526 5.87413 10.247C5.76992 10.3613 5.68688 10.457 5.68962 10.4597C5.69233 10.4623 5.7732 10.4486 5.86931 10.4291C6.07685 10.3871 6.23005 10.326 6.44878 10.1982C6.53751 10.1463 6.61276 10.1064 6.61602 10.1094C6.63171 10.1243 6.49662 10.3686 6.44246 10.4232C6.40857 10.4574 6.31826 10.5183 6.24173 10.5586C5.73359 10.8261 5.62193 10.916 5.50721 11.1493C5.41522 11.3366 5.39715 11.3929 5.43283 11.3815C6.1267 11.1587 6.33965 11.1016 6.47765 11.1014L6.55992 11.1012L6.52178 11.189C6.45807 11.3356 6.31605 11.536 6.18731 11.661L6.06535 11.7794L5.84977 11.7643C5.53575 11.7423 5.45602 11.7497 5.31603 11.8138C5.22743 11.8544 5.14973 11.9134 5.03788 12.025C4.95253 12.1102 4.88269 12.1877 4.88269 12.1972C4.88269 12.2068 5.05178 12.2548 5.25843 12.304C5.60002 12.3854 5.80007 12.4489 5.80007 12.4761C5.80007 12.4981 5.63856 12.5661 5.51258 12.5972C5.40972 12.6225 5.2872 12.6299 4.95977 12.6307L4.53914 12.6316L4.39039 12.7041C4.12657 12.8327 3.98121 13.0376 3.96851 13.2988C3.95795 13.516 3.97138 13.5262 4.11205 13.4075C4.33554 13.2189 4.46684 13.1955 4.91197 13.2649C5.21993 13.313 5.63937 13.314 5.82935 13.2673C6.01738 13.221 6.17663 13.1337 6.28004 13.0203C6.32798 12.9677 6.36981 12.928 6.37301 12.9322C6.37621 12.9363 6.40797 13.0219 6.44359 13.1225C6.47921 13.2231 6.53427 13.3566 6.56597 13.4192C6.6332 13.5519 6.79221 13.7164 6.91112 13.7763L6.99451 13.8182L7.09753 13.7685C7.21901 13.7099 7.35851 13.5695 7.42605 13.4379C7.45256 13.3862 7.50172 13.2671 7.5353 13.1732C7.56885 13.0793 7.60076 12.9954 7.60621 12.9867C7.61163 12.9781 7.65733 13.0145 7.70774 13.0676C7.87986 13.2491 8.08151 13.3265 8.43527 13.347C8.63674 13.3587 9.01884 13.3316 9.19635 13.2931C9.24466 13.2826 9.3474 13.2737 9.42466 13.2734C9.60138 13.2726 9.72685 13.3256 9.88368 13.4672L9.99521 13.5679L10.0082 13.517C10.0153 13.4891 10.017 13.404 10.0119 13.3281C9.99289 13.0405 9.79239 12.8054 9.47832 12.7024C9.37532 12.6686 9.3266 12.6655 9.04554 12.6748C8.83609 12.6817 8.67744 12.677 8.57709 12.6611C8.41134 12.6348 8.23596 12.5771 8.20311 12.538C8.16993 12.4986 8.28199 12.4572 8.68583 12.3598C8.8861 12.3115 9.06173 12.2655 9.07609 12.2575C9.11103 12.2383 8.94132 12.0465 8.79192 11.9362C8.61843 11.8083 8.52519 11.7877 8.19255 11.8041L7.91213 11.8179L7.82386 11.7377C7.70302 11.6278 7.59473 11.4852 7.49903 11.3098C7.44537 11.2114 7.42576 11.1578 7.44024 11.149C7.49101 11.118 7.82066 11.1933 8.25579 11.3351C8.42018 11.3886 8.55914 11.4281 8.56456 11.4227C8.58227 11.4053 8.45559 11.1325 8.3871 11.0405C8.3504 10.9913 8.2913 10.9293 8.25575 10.9028C8.17992 10.8463 7.89563 10.6824 7.70829 10.5871C7.63597 10.5503 7.55329 10.4929 7.52456 10.4594C7.48082 10.4085 7.36158 10.1814 7.36158 10.149C7.36158 10.1436 7.4077 10.1682 7.46405 10.2037C7.70944 10.3583 7.96323 10.4566 8.2181 10.4956L8.30362 10.5087L8.12189 10.3092C7.668 9.81108 7.43965 9.39215 7.43965 9.05758C7.43965 8.96514 7.44016 8.96441 7.50362 8.96441C7.57264 8.96441 7.62698 8.99407 7.72945 9.08763C7.94991 9.28893 8.21533 9.8046 8.53296 10.6488C8.60067 10.8288 8.66243 10.9833 8.67016 10.9921C8.67791 11.0009 8.71821 10.9677 8.75975 10.9184C8.86045 10.7987 9.04568 10.6628 9.12932 10.6473C9.19266 10.6356 9.20574 10.6431 9.33813 10.7671C9.41582 10.8398 9.54085 10.948 9.616 11.0075C9.74865 11.1125 10.1328 11.3784 10.1788 11.3971C10.1947 11.4035 10.1927 11.4128 10.1723 11.4279C10.1295 11.4595 9.98184 11.4386 9.83824 11.3805C9.70019 11.3247 9.55891 11.3012 9.47933 11.3209C9.32064 11.3602 9.17129 11.7022 9.21571 11.9246C9.23984 12.0454 9.2614 12.1118 9.31405 12.2274L9.35789 12.3236L9.37959 12.2309C9.41857 12.0644 9.5114 12.0127 9.72827 12.0369C9.91417 12.0577 10.0216 12.0003 10.1565 11.8082C10.1969 11.7506 10.3047 11.698 10.3823 11.698C10.4392 11.698 10.4401 11.6996 10.4523 11.8279C10.4843 12.1613 10.4578 12.4535 10.3872 12.5485C10.3358 12.6175 10.3035 12.7669 10.3183 12.8662C10.3262 12.9182 10.3569 12.9795 10.4053 13.0394C10.4812 13.1335 10.5222 13.2355 10.5121 13.3054C10.5091 13.3266 10.5011 13.381 10.4943 13.4264L10.482 13.509L10.5828 13.4553C10.7568 13.3628 10.8849 13.2329 10.974 13.0584C11.0482 12.9132 11.0534 12.8927 11.043 12.7906C11.0291 12.6542 10.9954 12.5719 10.9172 12.4842C10.8576 12.4172 10.8569 12.4141 10.8435 12.1343C10.8361 11.979 10.8367 11.852 10.845 11.852C10.8712 11.852 11.0382 11.981 11.111 12.0574C11.2211 12.173 11.2651 12.2464 11.3251 12.4136C11.4105 12.6518 11.4384 12.6719 11.719 12.6974C11.9198 12.7157 11.9656 12.7451 12.0366 12.9011L12.0804 12.9974L12.1029 12.9204C12.205 12.5711 12.1625 12.2031 11.9977 12.01C11.9119 11.9094 11.8426 11.8833 11.6264 11.8702C11.4793 11.8613 11.4096 11.8476 11.3434 11.8146C11.2322 11.7592 11.1359 11.6701 11.088 11.5784C11.0178 11.4443 11.0176 11.4444 11.319 11.459C11.6993 11.4774 11.7827 11.4526 11.9923 11.2593C12.1381 11.1248 12.1521 11.1165 12.2189 11.1259C12.258 11.1314 12.3065 11.1424 12.3265 11.1504C12.3594 11.1634 12.3584 11.1567 12.3168 11.0831C12.2522 10.9688 12.0523 10.7681 11.954 10.7188C11.8427 10.663 11.6679 10.62 11.5527 10.62C11.3925 10.62 11.3325 10.6668 11.163 10.9244C11.0374 11.1152 10.9144 11.2269 10.8083 11.2466C10.7388 11.2594 10.4714 11.1987 10.4123 11.1566C10.2485 11.0401 9.4733 10.3972 9.48456 10.3872C9.49243 10.3802 9.57355 10.3506 9.6648 10.3213C9.75605 10.2921 9.83401 10.2654 9.83805 10.262C9.84207 10.2586 9.81572 10.2321 9.77949 10.2032C9.61547 10.0723 9.41668 9.83884 9.29012 9.62855C9.16529 9.42111 8.68449 8.46178 8.69856 8.44822C8.72809 8.41979 8.86234 8.60791 9.02062 8.8995C9.31772 9.44681 9.547 9.74157 9.75839 9.84791L9.84047 9.88922L9.84045 9.807C9.84043 9.70784 9.78677 9.59169 9.56775 9.21674C9.32824 8.80671 9.06992 8.23514 9.10769 8.19872C9.13557 8.17184 9.26615 8.3456 9.43881 8.63931C9.7499 9.1685 9.96127 9.45291 10.2218 9.69289C10.4071 9.86358 10.5857 9.98958 10.7493 10.0651C10.8681 10.1199 10.889 10.1235 11.0468 10.1156C11.1633 10.1098 11.2394 10.0954 11.2893 10.0698L11.3621 10.0324L11.1671 9.80161C10.7261 9.27962 10.3607 8.7293 10.0488 8.11737C9.80688 7.64269 9.79522 7.61314 9.83116 7.56549C9.85675 7.53153 9.85925 7.53171 9.89871 7.57009C9.92126 7.592 9.97847 7.69484 10.0259 7.7986C10.3121 8.42535 10.7158 8.88121 11.3644 9.30996C11.6356 9.48916 11.8483 9.60872 11.8656 9.59165C11.8725 9.58479 11.7944 9.49499 11.6919 9.39212C11.2621 8.96054 10.8901 8.49298 10.4422 7.82127C10.2117 7.47548 10.1858 7.4162 10.2232 7.32007C10.2371 7.28416 10.3062 7.28097 10.3484 7.31429C10.3647 7.32719 10.4423 7.43981 10.5209 7.56455C10.7945 7.99919 11.0445 8.29158 11.3112 8.48909C11.4752 8.61056 11.557 8.63721 11.7653 8.63696C11.945 8.63674 12.0683 8.59029 12.1902 8.47693L12.2653 8.40699L12.1124 8.30612C11.8037 8.1025 11.5729 7.83477 11.1734 7.21688C11.0384 7.00807 10.8846 6.77387 10.8317 6.69645C10.7227 6.53697 10.6974 6.44721 10.7475 6.39781C10.7655 6.38008 10.8007 6.36559 10.8257 6.36559C10.8626 6.36559 10.8824 6.38905 10.93 6.48933C11.098 6.84339 11.395 7.15859 11.972 7.59512L12.1809 7.75318L12.2794 7.74031C12.3336 7.73322 12.3779 7.72304 12.3779 7.71769C12.3779 7.71235 12.3186 7.64633 12.246 7.57098C12.0221 7.33834 11.75 7.00748 11.3572 6.49029C11.0362 6.06767 10.9814 5.98577 10.9884 5.93913C10.9928 5.90898 11.008 5.88432 11.0221 5.88432C11.0362 5.88432 11.1735 6.00778 11.3273 6.15864C11.6681 6.49299 11.7731 6.56019 11.9747 6.57295C12.091 6.58031 12.1339 6.5743 12.2171 6.539C12.3786 6.47048 12.3781 6.46658 12.1914 6.2989C11.8839 6.02279 11.5579 5.61493 11.3636 5.26317C11.2837 5.11865 11.2819 5.11138 11.3082 5.04635L11.3354 4.97905L11.4156 5.09118C11.5352 5.25853 11.6784 5.40597 11.8365 5.52461C11.9842 5.63543 12.2362 5.78026 12.2528 5.76383C12.2581 5.7586 12.0557 5.46666 11.803 5.11507C11.3409 4.47234 11.2888 4.3808 11.3873 4.38438C11.4164 4.38544 11.4648 4.42621 11.5301 4.5047C11.6676 4.66979 11.8047 4.73824 11.9949 4.73676C12.0714 4.73617 12.1712 4.72527 12.2168 4.71251L12.2997 4.68935L12.1696 4.56974C12.0981 4.50398 11.9977 4.3871 11.9465 4.31002C11.7825 4.06313 11.7104 3.84635 11.5 2.96787C11.3398 2.29903 11.2114 2.0789 10.8954 1.93161C10.7468 1.86237 10.5122 1.84064 10.3309 1.87933C10.1781 1.91196 9.94934 2.0261 9.87943 2.10462C9.68301 2.32525 9.59847 2.74018 9.70253 2.97282C9.75127 3.08176 9.85023 3.18126 9.92928 3.20084C9.98897 3.21561 10.0827 3.34495 10.1123 3.45345C10.156 3.61347 10.1003 3.74769 9.85714 4.06852C9.44037 4.61839 9.04275 4.98057 8.67067 5.14926C8.58004 5.19034 8.53462 5.1976 8.35837 5.19914C8.11926 5.20122 8.00976 5.16967 7.91269 5.07076C7.84842 5.00527 7.78393 4.87743 7.80477 4.85687C7.81151 4.85022 7.86378 4.8448 7.92091 4.8448C8.1736 4.8448 8.39594 4.68754 8.48114 4.44856L8.50915 4.36996L8.26231 4.37874C7.94587 4.39 7.807 4.36392 7.71846 4.2766C7.68237 4.241 7.65436 4.19361 7.65436 4.16814C7.65436 4.12419 7.65924 4.12286 7.82515 4.12171C8.09141 4.11984 8.22015 4.03368 8.22033 3.85722L8.22041 3.78405L8.15514 3.83316C8.03685 3.92214 7.96736 3.89771 7.85134 3.72634C7.77298 3.61059 7.77147 3.60518 7.77147 3.43901C7.77147 3.24408 7.81065 3.01806 7.86534 2.89737C7.99016 2.62198 7.98485 2.44218 7.8468 2.26744C7.80091 2.20938 7.79982 2.1071 7.84467 2.06868C7.86345 2.05258 7.91375 2.03414 7.95645 2.02769C8.06931 2.01064 8.12258 1.96201 8.21441 1.79205C8.25942 1.70875 8.29444 1.63881 8.29222 1.6366C8.28999 1.63441 8.22921 1.64873 8.15717 1.66844C7.80294 1.76531 7.4636 1.75794 7.14687 1.64648C6.74994 1.50679 6.49889 1.46976 6.29599 1.52098Z" fill="white"/>
</svg>
