<svg width="14" height="14" viewBox="0 0 14 14" fill="none" xmlns="http://www.w3.org/2000/svg">
<g clip-path="url(#clip0_1_2332)">
<path d="M7 3.67847L2.00696 7.7947C2.00696 7.80051 2.0055 7.80906 2.00258 7.82071C1.99972 7.83226 1.9982 7.84066 1.9982 7.84662V12.0147C1.9982 12.1652 2.05322 12.2957 2.16323 12.4055C2.27321 12.5154 2.40345 12.5707 2.55398 12.5707H5.88839V9.23607H8.11164V12.5708H11.446C11.5965 12.5708 11.7269 12.5156 11.8368 12.4055C11.9468 12.2958 12.002 12.1653 12.002 12.0147V7.84662C12.002 7.8235 11.9988 7.80605 11.9932 7.7947L7 3.67847Z" fill="white"/>
<path d="M13.9034 6.85684L12.0018 5.27641V1.73344C12.0018 1.65245 11.9758 1.58584 11.9235 1.53371C11.8717 1.48164 11.8051 1.4556 11.7239 1.4556H10.0567C9.97558 1.4556 9.909 1.48164 9.85684 1.53371C9.8048 1.58584 9.77879 1.65248 9.77879 1.73344V3.42675L7.66001 1.65521C7.47497 1.50469 7.25494 1.42944 7.00019 1.42944C6.74546 1.42944 6.52547 1.50469 6.34024 1.65521L0.0964633 6.85684C0.0385833 6.90307 0.00686026 6.9653 0.000959723 7.04347C-0.0049104 7.12158 0.0153157 7.1898 0.0616988 7.24765L0.600077 7.89026C0.64646 7.94233 0.707169 7.97417 0.782447 7.98582C0.851945 7.99166 0.921444 7.97134 0.990943 7.92505L7 2.9144L13.0091 7.92502C13.0555 7.96542 13.1162 7.98558 13.1915 7.98558H13.2176C13.2927 7.97414 13.3533 7.94209 13.4 7.89014L13.9384 7.24762C13.9847 7.18965 14.005 7.12155 13.999 7.04335C13.993 6.96539 13.9612 6.90317 13.9034 6.85684Z" fill="white"/>
</g>
<defs>
<clipPath id="clip0_1_2332">
<rect width="14" height="14" fill="white"/>
</clipPath>
</defs>
</svg>
