<svg width="14" height="14" viewBox="0 0 14 14" fill="none" xmlns="http://www.w3.org/2000/svg">
<path fill-rule="evenodd" clip-rule="evenodd" d="M1.1276 1.0519C0.582564 1.19869 0.138127 1.66197 0.0275015 2.19862C0.00384526 2.3134 -0.0039048 3.70203 0.0017827 6.79597L0.009939 11.2288L1.24956 9.62409C1.93138 8.74147 2.52903 7.98162 2.57769 7.9355C2.81994 7.70603 3.25672 7.53497 3.6005 7.53497C3.81028 7.53497 4.04788 7.59259 4.27556 7.69869C4.45406 7.78184 4.58319 7.89719 5.34041 8.64966L6.20213 9.50597L7.58253 7.75756C8.34175 6.79594 9.02803 5.95184 9.10766 5.88178C9.58472 5.46184 10.3295 5.40337 10.8796 5.74269C10.9513 5.78694 11.6814 6.49284 12.5021 7.31141L13.9943 8.79972V5.56453C13.9943 2.76034 13.9879 2.30487 13.9465 2.14565C13.8061 1.60665 13.3896 1.1915 12.8477 1.05034C12.5861 0.982217 1.38075 0.983717 1.1276 1.0519ZM5.27913 3.03494C5.55297 3.08572 5.8655 3.25819 6.06763 3.47006C6.89578 4.33834 6.42656 5.76334 5.24285 5.97491C4.42825 6.12047 3.63588 5.5415 3.5166 4.71359C3.37175 3.70822 4.27431 2.84862 5.27913 3.03494ZM9.87922 6.54944C9.75809 6.60209 9.93919 6.37894 7.07613 10.0037L4.71888 12.9881L8.67691 12.9962C11.4302 13.0019 12.685 12.9941 12.7994 12.9705C13.2048 12.887 13.6351 12.5608 13.8191 12.1979C13.9726 11.8949 13.9943 11.7394 13.9943 10.9424V10.2067L12.1896 8.40316C10.9367 7.15103 10.3494 6.58497 10.2688 6.55169C10.1268 6.49309 10.0103 6.4924 9.87922 6.54944ZM3.35322 8.59266C3.28203 8.63606 1.06541 11.4558 0.417751 12.3269L0.325564 12.4509L0.491658 12.6036C0.583002 12.6876 0.726189 12.791 0.809877 12.8334C1.12156 12.9913 1.23791 13.0038 2.38369 13.0023L3.44744 13.0009L4.49431 11.672C5.0701 10.9411 5.54644 10.3283 5.55285 10.3103C5.57016 10.2616 3.93291 8.62969 3.81563 8.57869C3.67563 8.51781 3.46556 8.52416 3.35322 8.59266Z" fill="white"/>
</svg>
