<svg width="9" height="10" viewBox="0 0 9 10" fill="none" xmlns="http://www.w3.org/2000/svg">
<g clip-path="url(#clip0_1_2308)">
<path d="M1.24142 1.73C1.33785 1.78429 1.98714 2.09857 2.30142 2.24929C2.30285 2.37071 2.305 2.58214 2.30928 2.585C2.34428 2.88714 2.40357 3.22214 2.42071 3.31714C2.39214 3.33286 2.24571 3.42857 2.24571 3.72714V3.75571C2.30857 4.585 2.63857 4.22786 2.70642 4.59143C2.81928 5.195 3.35428 5.63214 3.68714 5.78286C3.88 5.87 4.07785 5.91429 4.28571 5.91857C4.49357 5.91429 4.69142 5.87 4.88428 5.78286C5.21714 5.63214 5.75142 5.195 5.865 4.59143C5.93285 4.22714 6.26285 4.585 6.32571 3.75571V3.72714C6.32571 3.42857 6.17928 3.33286 6.15071 3.31714C6.16785 3.22214 6.22714 2.88714 6.26142 2.58571C6.26571 2.58214 6.26857 2.37143 6.27 2.25L6.94357 1.92286V2.725C6.9114 2.74323 6.88458 2.76958 6.86579 2.80142C6.84698 2.83325 6.83686 2.86946 6.83642 2.90643C6.83642 2.97643 6.87142 3.035 6.92214 3.07429C6.92214 3.07429 6.83142 3.58857 6.80142 3.73929C6.77214 3.89071 7.32285 3.86071 7.29857 3.73929C7.27357 3.61857 7.17714 3.07429 7.17714 3.07429C7.20382 3.05511 7.22561 3.02992 7.24075 3.00076C7.25589 2.9716 7.26395 2.93928 7.26428 2.90643C7.26384 2.86946 7.25372 2.83325 7.23492 2.80142C7.21612 2.76958 7.1893 2.74323 7.15714 2.725V1.81786C7.24142 1.77643 7.305 1.74429 7.33 1.73C7.39857 1.69143 7.435 1.64214 7.42714 1.59143C7.43642 1.53786 7.39857 1.48071 7.295 1.43C6.55714 1.06929 4.67642 0.148571 4.49 0.06C4.42626 0.0273784 4.35696 0.00702519 4.28571 0C4.21421 0.00693719 4.14466 0.0272927 4.08071 0.06C3.89499 0.148571 2.01428 1.06929 1.27642 1.43C1.17285 1.48071 1.13428 1.53786 1.14428 1.59143C1.13642 1.64214 1.17285 1.69143 1.24142 1.73ZM6.79 6.91714C6.44285 6.79143 5.83857 6.43143 5.735 6.375C5.71327 6.36232 5.68913 6.35432 5.66413 6.3515C5.63913 6.34869 5.61382 6.35112 5.58982 6.35865C5.56581 6.36619 5.54365 6.37864 5.52474 6.39523C5.50583 6.41183 5.49059 6.43218 5.48 6.455C5.19428 6.93357 4.66285 8.32643 4.29285 8.35286L4.28571 8.35214L4.27928 8.35286C3.90928 8.32714 3.37928 6.93429 3.09214 6.455C3.08146 6.43226 3.06618 6.41198 3.04726 6.39545C3.02833 6.37892 3.00618 6.3665 2.98221 6.35898C2.95824 6.35146 2.93297 6.349 2.90799 6.35176C2.88302 6.35452 2.85889 6.36243 2.83714 6.375C2.73357 6.43071 2.13 6.79143 1.78214 6.91714C0.617852 7.33714 0.0935669 7.76429 0.0935669 8.05714V10H8.47928V8.05714C8.47928 7.765 7.955 7.33714 6.79 6.91714Z" fill="white"/>
</g>
<defs>
<clipPath id="clip0_1_2308">
<rect width="8.57143" height="10" fill="white"/>
</clipPath>
</defs>
</svg>
