<svg width="21" height="22" viewBox="0 0 21 22" fill="none" xmlns="http://www.w3.org/2000/svg">
<g clip-path="url(#clip0_1_2415)">
<path fill-rule="evenodd" clip-rule="evenodd" d="M3.99057 0.959473C2.29443 0.959473 0.919434 2.33446 0.919434 4.03061V17.9689C0.919434 19.665 2.29443 21.04 3.99057 21.04H17.9288C19.625 21.04 21 19.665 21 17.9689V4.03061C21 2.33447 19.625 0.959473 17.9288 0.959473H3.99057ZM13.9234 3.46924C13.9231 4.33725 14.2383 5.17577 14.8103 5.8287C15.9482 7.1423 17.5211 7.067 17.5211 7.067V9.65237C16.2304 9.65458 14.9717 9.25064 13.9234 8.49774V13.7605C13.9234 16.3961 11.7898 18.5296 9.16262 18.5296C6.71112 18.5296 4.40186 16.5467 4.40186 13.7605C4.40186 10.899 6.92866 8.65671 9.81523 9.04159V11.6855C8.3845 11.2421 6.99559 12.3214 6.99559 13.7605C6.99559 14.9653 7.98288 15.9359 9.17098 15.9359C9.73278 15.9358 10.2726 15.7177 10.6768 15.3276C11.081 14.9374 11.3181 14.4056 11.338 13.8442V3.46924H13.9234Z" fill="url(#paint0_linear_1_2415)"/>
</g>
<defs>
<linearGradient id="paint0_linear_1_2415" x1="21" y1="10.9997" x2="0.919433" y2="10.9997" gradientUnits="userSpaceOnUse">
<stop stop-color="#001C54"/>
<stop offset="1" stop-color="#001C54"/>
</linearGradient>
<clipPath id="clip0_1_2415">
<rect width="20.0805" height="20.0805" fill="white" transform="translate(0.919434 0.959961)"/>
</clipPath>
</defs>
</svg>
