<svg width="45" height="36" viewBox="0 0 45 36" fill="none" xmlns="http://www.w3.org/2000/svg">
<g clip-path="url(#clip0_1_2023)">
<path d="M20.1856 23.609L20.8101 22.4585C21.2904 22.4176 21.7342 22.1831 21.9477 21.7898L26.2231 13.8739C25.27 13.71 24.4173 13.3075 23.7505 12.7425L19.4124 20.7737C19.1957 21.1725 19.2757 21.6094 19.5437 21.948L18.9179 23.101L20.1856 23.609Z" fill="#001C54"/>
<path d="M27.1844 12.7558C29.1125 12.7558 30.6813 11.4083 30.6813 9.7522C30.6813 8.09609 29.1125 6.7486 27.1844 6.7486C25.2563 6.7486 23.6874 8.09609 23.6874 9.7522C23.6874 11.4083 25.2563 12.7558 27.1844 12.7558ZM26.485 9.15148H27.8838V10.3529H26.485V9.15148Z" fill="#001C54"/>
<path d="M34.9574 20.7742L30.6189 12.7427C29.952 13.3076 29.0994 13.71 28.1464 13.8738L32.4222 21.7897C32.6359 22.1838 33.0794 22.4175 33.5597 22.4583L34.1843 23.6089L35.4519 23.1008L34.8264 21.9484C35.0958 21.6076 35.172 21.1685 34.9574 20.7742Z" fill="#001C54"/>
<path d="M29.2842 5.96903V4.90647C29.2842 3.91272 28.343 3.10431 27.186 3.10431C26.029 3.10431 25.0878 3.91272 25.0878 4.90647V5.96903C25.7263 5.70651 26.4323 5.54724 27.186 5.54724C27.9397 5.54724 28.6457 5.70651 29.2842 5.96903Z" fill="#001C54"/>
<path d="M34.5156 17.1172L35.3089 18.5787C36.9744 19.084 37.7223 19.6557 37.7223 20.0044C37.7223 20.2719 37.3323 20.6204 36.6794 20.9366L37.3665 21.9831C38.8165 21.2815 39.1211 20.5201 39.1211 20.0044C39.1211 18.4736 36.6599 17.5962 34.5156 17.1172Z" fill="#001C54"/>
<path d="M26.4023 16.4248L25.7402 17.6444C26.7025 17.6106 27.6663 17.612 28.6279 17.6458L27.9638 16.4224C27.4409 16.4128 26.9254 16.4153 26.4023 16.4248Z" fill="#001C54"/>
</g>
<path fill-rule="evenodd" clip-rule="evenodd" d="M26.6006 29.6561L26.3883 29.4302C25.9248 29.4872 25.4577 29.5259 24.9904 29.546L23.4323 32.0686C23.209 32.4303 22.7416 32.6285 22.2715 32.5608L19.9327 32.2242C19.4628 32.1566 19.096 31.8382 19.0221 31.4339L18.5053 28.6073C18.0732 28.458 17.6483 28.2915 17.2338 28.1093L14.4102 29.6277C14.0062 29.8449 13.4861 29.8157 13.1184 29.5553L11.289 28.2594C10.9214 27.999 10.789 27.5658 10.9604 27.1839L12.1561 24.5193C11.8673 24.203 11.5949 23.8746 11.341 23.5365L8.01827 23.6391C7.54204 23.6538 7.10832 23.4051 6.94154 23.0217L6.11151 21.1136C5.94475 20.7302 6.08228 20.2982 6.45305 20.041L9.04005 18.2465C8.97373 17.8485 8.92866 17.4473 8.90524 17.0459L5.96832 15.7076C5.54732 15.5159 5.31649 15.1142 5.3953 14.7106L5.78722 12.7018C5.86589 12.2982 6.23643 11.9831 6.70726 11.9195L9.99824 11.4757C10.172 11.1047 10.3658 10.7396 10.578 10.3833L8.81029 7.95835C8.55736 7.61144 8.59126 7.1645 8.89447 6.84876L10.4033 5.27731C10.7064 4.96167 11.2107 4.84786 11.6555 4.9951L14.7576 6.02206C15.1255 5.77426 15.5077 5.54038 15.9012 5.32204L15.8814 4.84486C16.2549 6.30163 16.7202 7.87341 17.2714 9.52996C17.1117 9.64924 16.956 9.77265 16.8046 9.90006L17.5842 10.4522C17.9572 11.5324 18.3651 12.6451 18.8062 13.7823L15.3962 11.3669C13.7842 13.4639 13.1963 16.1064 13.9683 18.6644L19.5933 16.8593C19.5441 16.5023 19.5522 16.1461 19.613 15.7992C19.877 16.4399 20.1508 17.0865 20.4342 17.7379C20.6818 18.3071 20.9321 18.8694 21.1846 19.4242C20.877 19.1978 20.6016 18.9353 20.3682 18.6406L14.7432 20.4458C16.1133 22.8118 18.5744 24.4758 21.3924 25.1511L22.1197 21.4232C22.6539 22.5349 23.1948 23.6098 23.7375 24.6411L23.5759 25.4696C23.7808 25.4805 23.985 25.4863 24.1883 25.487C24.9968 26.9851 25.8063 28.3824 26.6006 29.6561Z" fill="#001C54"/>
<path d="M22.6512 3.92351L21.8769 4.042C18.7253 1.75452 17.8839 3.04431 17.8571 3.97513C17.5399 15.7114 24.3071 24.5222 27.7304 27.4606C30.9032 29.514 31.556 26.4817 31.4858 24.7089L32.2867 24.2978C32.8999 31.2963 29.5854 31.2335 27.8515 30.3272C17.374 24.5602 11.991 6.65639 15.8794 2.44178C18.5614 0.121892 21.5114 2.46298 22.6512 3.92351Z" fill="#D00000"/>
<defs>
<clipPath id="clip0_1_2023">
<rect width="23.8724" height="20.5046" fill="white" transform="translate(21.1074 3.10431)"/>
</clipPath>
</defs>
</svg>
