<svg width="33" height="33" viewBox="0 0 33 33" fill="none" xmlns="http://www.w3.org/2000/svg">
<path fill-rule="evenodd" clip-rule="evenodd" d="M18.1872 31.1887C26.2944 31.1887 32.8666 24.6165 32.8666 16.5093C32.8666 8.40208 26.2944 1.8299 18.1872 1.8299C13.5236 1.8299 9.36785 4.00471 6.67896 7.39548C9.18923 4.57743 12.8456 2.80263 16.9165 2.80263C24.4859 2.80263 30.6222 8.9389 30.6222 16.5084C30.6222 24.0779 24.4859 30.2141 16.9165 30.2141C12.8386 30.2141 9.17662 28.4332 6.66599 25.6067C9.35447 29.0068 13.5161 31.1887 18.1872 31.1887Z" fill="#001C54"/>
<path fill-rule="evenodd" clip-rule="evenodd" d="M16.6982 32.6608C7.77799 32.6608 0.546761 25.4296 0.546761 16.5094C0.546761 7.5892 7.77799 0.357971 16.6982 0.357971C20.6778 0.357971 24.3213 1.79727 27.1364 4.18373C24.6067 2.32724 21.4845 1.23077 18.1062 1.23077C9.66808 1.23077 2.82764 8.07121 2.82764 16.5093C2.82764 24.9474 9.66808 31.7879 18.1062 31.7879C21.485 31.7879 24.6076 30.6911 27.1375 28.8342C24.3222 31.2211 20.6783 32.6608 16.6982 32.6608Z" fill="#D00000"/>
<path d="M16.5386 9.0574C15.0408 6.02416 12.1573 5.79943 10.622 5.91184C10.3598 5.89529 9.87302 6.53533 9.91046 6.69761C13.3931 6.2114 15.7398 8.14618 16.5386 9.0574Z" fill="#D00000"/>
<path d="M16.5386 10.2176C15.0407 7.28176 10.7967 7.02213 8.86194 7.25929C8.41257 7.31438 8.27526 7.93335 8.22533 8.12058C12.4494 7.40159 15.5525 9.18159 16.5386 10.2176Z" fill="#D00000"/>
<path d="M6.5402 8.90698C6.09083 9.02634 5.99097 9.69337 5.97849 9.91806C12.5692 7.93335 15.2654 10.4798 16.5386 11.5283C14.0222 7.57385 8.93683 8.27037 6.5402 8.90698Z" fill="#D00000"/>
<path d="M16.8382 9.0574C18.3361 6.02416 21.2196 5.79943 22.7549 5.91184C23.017 5.89529 23.5039 6.53533 23.4664 6.69761C19.9838 6.2114 17.6371 8.14618 16.8382 9.0574Z" fill="#D00000"/>
<path d="M16.8382 10.2176C18.3362 7.28176 22.5802 7.02213 24.515 7.25929C24.9643 7.31438 25.1016 7.93335 25.1516 8.12058C20.9275 7.40159 17.8244 9.18159 16.8382 10.2176Z" fill="#D00000"/>
<path d="M26.8367 8.90698C27.2861 9.02634 27.3859 9.69337 27.3984 9.91806C20.8077 7.93335 18.1114 10.4798 16.8382 11.5283C19.3547 7.57385 24.4401 8.27037 26.8367 8.90698Z" fill="#D00000"/>
<path d="M16.7395 27.9682V12.5399C15.9606 12.5998 15.6161 12.2779 15.354 11.7162C15.0929 11.1567 12.8075 8.57068 5.24316 10.5551C4.94362 10.7426 5.13084 11.0864 5.3555 11.0419C9.32493 10.2558 10.1862 10.2933 11.8714 10.4428C13.4007 10.5785 14.7938 11.6484 14.8671 12.0156C14.9046 12.203 15.1667 12.5401 15.5037 12.802V23.1749C13.5265 23.3247 13.2319 25.0847 13.3318 25.946H12.1335V27.9682H16.7395Z" fill="#001C54"/>
<path fill-rule="evenodd" clip-rule="evenodd" d="M5.00149 18.6815H10.1435L7.53524 11.3784L5.00149 18.6815ZM10.8922 18.6815H11.1558C10.9862 20.4884 9.46521 21.9023 7.61401 21.9023C5.76282 21.9023 4.24187 20.4884 4.07224 18.6815H4.29047L7.31055 10.2924H7.83482L10.8922 18.6815Z" fill="#001C54"/>
<path d="M16.6959 27.9687V12.5403C17.4748 12.6003 17.8193 12.2784 18.0815 11.7167C18.3425 11.1572 20.6279 8.57117 28.1923 10.5556C28.4918 10.7431 28.3046 11.0869 28.0799 11.0424C24.1105 10.2563 23.2492 10.2938 21.5641 10.4433C20.0347 10.579 18.6417 11.6489 18.5683 12.0161C18.5308 12.2035 18.2687 12.5405 17.9317 12.8025V23.1754C19.9089 23.3252 20.2035 25.0852 20.1036 25.9465H21.302V27.9687H16.6959Z" fill="#001C54"/>
<path fill-rule="evenodd" clip-rule="evenodd" d="M28.4417 18.6833H23.3L25.9081 11.3807L28.4417 18.6833ZM22.5513 18.6833H22.2875C22.4573 20.4901 23.9782 21.9039 25.8293 21.9039C27.6804 21.9039 29.2013 20.4901 29.371 18.6833H29.1527L26.1328 10.2947H25.6085L22.5513 18.6833Z" fill="#001C54"/>
</svg>
