<svg width="33" height="33" viewBox="0 0 33 33" fill="none" xmlns="http://www.w3.org/2000/svg">
<g clip-path="url(#clip0_1_2119)">
<path d="M0.765948 19.7594C0.91387 19.8626 1.07006 19.9534 1.23292 20.0308C1.71633 20.2779 2.37882 20.6168 2.51483 21.3082C2.59598 21.7365 2.54314 22.1794 2.36352 22.5765C2.26491 22.7862 2.1629 22.9676 2.07393 23.124C2.04616 23.1727 2.01726 23.2271 1.98835 23.2764C2.22354 23.4657 2.5443 23.706 2.68031 23.8057C2.80368 23.8972 2.88467 24.0347 2.90475 24.1869C2.92484 24.3392 2.88229 24.493 2.78686 24.6133C2.70276 24.7227 2.6295 24.84 2.5681 24.9635C2.60721 24.9862 2.64631 25.0089 2.68598 25.031C3.18727 25.2466 3.56995 25.6696 3.73441 26.1899C3.81767 26.5896 3.80093 27.0037 3.68567 27.3953C3.6596 27.5138 3.63296 27.6322 3.61766 27.7507C3.58461 28.0936 3.63015 28.4395 3.75084 28.7622C3.87628 29.2844 4.38944 29.6163 4.91714 29.5165C6.56871 29.1195 8.196 28.6275 9.7909 28.0431H9.7943C10.386 27.8425 10.9215 27.6549 11.3431 27.5075C11.7347 27.371 12.03 27.2678 12.1836 27.2185C14.54 26.4733 15.0172 25.6226 15.0041 25.0395C14.9972 24.7269 15.2447 24.4677 15.5572 24.4603C15.7086 24.4525 15.8565 24.5074 15.9662 24.612C16.0759 24.7167 16.1377 24.8618 16.137 25.0134C16.1699 26.4257 14.956 27.5313 12.5276 28.3004C12.3814 28.3474 12.0957 28.4472 11.7166 28.5792L11.2066 28.7583C12.1407 29.7947 12.8222 31.0334 13.1974 32.3773L26.0517 32.3416L26.0137 32.285C25.8505 32.0498 25.7037 31.8037 25.5745 31.5482C25.2927 30.9755 25.0575 30.381 24.8712 29.7704C24.5274 28.6104 24.2888 27.4217 24.1583 26.2188C23.9351 24.3229 24.2219 22.4017 24.9891 20.6537C25.4416 19.7077 26.0012 18.8169 26.6569 17.9986C26.8797 17.6982 27.1024 17.3894 27.3183 17.0777H24.1883L24.228 17.6767C24.2289 18.2821 23.7396 18.774 23.1342 18.7761H19.6603C19.0549 18.774 18.5656 18.2821 18.5665 17.6767V17.0363L10.5871 17.076C9.98176 17.0738 9.49243 16.5819 9.49337 15.9766V2.30737C9.49439 2.12048 9.54358 1.937 9.63619 1.77466C8.25431 2.1303 6.98924 2.84059 5.96613 3.83524C5.07132 4.79463 4.37968 5.92501 3.93276 7.15846C3.74469 7.7067 3.59044 8.26597 3.47088 8.83311L3.41421 9.07453C3.27787 9.58975 3.09207 10.0906 2.8594 10.5701C2.75285 10.8081 2.64575 11.0461 2.55337 11.2887C2.49982 11.4116 2.47001 11.5435 2.46553 11.6775C2.49046 11.8611 2.70695 12.0594 2.9359 12.2697C3.40398 12.5998 3.70599 13.1166 3.76388 13.6865C3.7525 13.9553 3.6767 14.2175 3.54286 14.451C2.83324 15.9445 1.96372 17.3567 0.949564 18.6628C0.517727 19.1904 0.425919 19.3995 0.425919 19.484C0.530691 19.5859 0.644501 19.6781 0.765948 19.7594ZM4.51477 9.33918L4.57145 9.08983C4.682 8.57045 4.82298 8.05801 4.99365 7.55516C5.38687 6.46307 5.99896 5.46279 6.79241 4.61561C6.9963 4.39895 7.22084 4.20269 7.46283 4.02962C7.71634 3.86821 8.05177 3.93277 8.22726 4.17674C8.40275 4.42071 8.35728 4.75925 8.12362 4.94827C7.94083 5.07885 7.77132 5.2271 7.61754 5.39087C6.92916 6.12566 6.39841 6.99354 6.05794 7.9411C5.90392 8.40018 5.77639 8.86774 5.67598 9.34145L5.6193 9.58797C5.57597 9.78707 5.42908 9.94757 5.2346 10.0083C5.04012 10.0691 4.82798 10.0208 4.67899 9.88184C4.52999 9.74285 4.46708 9.53458 4.51421 9.33635L4.51477 9.33918ZM4.39293 10.8421C4.70592 10.8421 4.95965 11.0958 4.95965 11.4088C4.95965 11.7218 4.70592 11.9755 4.39293 11.9755C4.07994 11.9755 3.82621 11.7218 3.82621 11.4088C3.82621 11.0958 4.07994 10.8421 4.39293 10.8421Z" fill="#001C54"/>
</g>
<path d="M21.9575 13.6762H29.8864L29.8915 11.9761H23.406C22.5397 12.0518 21.8947 12.8089 21.9575 13.6762Z" fill="#001C54"/>
<path d="M20.8189 2.18606C20.8441 1.35991 20.1964 0.668959 19.3704 0.640625H12.8849V10.8415H19.3704C19.8936 10.8433 20.402 11.0152 20.8189 11.3312V2.18606ZM19.1188 9.14137H14.585C14.272 9.14137 14.0183 8.88764 14.0183 8.57465C14.0183 8.26166 14.272 8.00794 14.585 8.00794H19.1188C19.4318 8.00794 19.6855 8.26166 19.6855 8.57465C19.6855 8.88764 19.4318 9.14137 19.1188 9.14137ZM19.1188 6.30779H14.585C14.272 6.30779 14.0183 6.05406 14.0183 5.74107C14.0183 5.42808 14.272 5.17436 14.585 5.17436H19.1188C19.4318 5.17436 19.6855 5.42808 19.6855 5.74107C19.6855 6.05406 19.4318 6.30779 19.1188 6.30779ZM19.1188 3.47421H14.585C14.272 3.47421 14.0183 3.22048 14.0183 2.90749C14.0183 2.5945 14.272 2.34077 14.585 2.34077H19.1188C19.4318 2.34077 19.6855 2.5945 19.6855 2.90749C19.6855 3.22048 19.4318 3.47421 19.1188 3.47421Z" fill="#D00000"/>
<path d="M12.8849 11.9761V13.6762H20.8189C20.8817 12.8089 20.2366 12.0518 19.3704 11.9761H12.8849Z" fill="#001C54"/>
<path d="M29.8899 0.640625H23.4044C22.5784 0.668959 21.9308 1.35991 21.9559 2.18606V11.3312C22.3729 11.0152 22.8813 10.8433 23.4044 10.8415H29.8899V0.640625ZM28.1898 9.14137H23.6561C23.3431 9.14137 23.0893 8.88764 23.0893 8.57465C23.0893 8.26166 23.3431 8.00794 23.6561 8.00794H28.1898C28.5028 8.00794 28.7565 8.26166 28.7565 8.57465C28.7565 8.88764 28.5028 9.14137 28.1898 9.14137ZM28.1898 6.30779H23.6561C23.3431 6.30779 23.0893 6.05406 23.0893 5.74107C23.0893 5.42808 23.3431 5.17436 23.6561 5.17436H28.1898C28.5028 5.17436 28.7565 5.42808 28.7565 5.74107C28.7565 6.05406 28.5028 6.30779 28.1898 6.30779ZM28.1898 3.47421H23.6561C23.3431 3.47421 23.0893 3.22048 23.0893 2.90749C23.0893 2.5945 23.3431 2.34077 23.6561 2.34077H28.1898C28.5028 2.34077 28.7565 2.5945 28.7565 2.90749C28.7565 3.22048 28.5028 3.47421 28.1898 3.47421Z" fill="#D00000"/>
<path d="M31.0217 2.33077V13.6764C31.0379 14.2846 30.5592 14.7913 29.9511 14.8099H21.9542C21.9542 14.8189 21.9497 14.8263 21.9491 14.8354C21.9485 14.8444 21.9542 14.8524 21.9542 14.8614V15.9178C21.9542 16.2308 21.7005 16.4845 21.3875 16.4845C21.0745 16.4845 20.8208 16.2308 20.8208 15.9178V14.8614C20.8208 14.8524 20.8253 14.8444 20.8259 14.8354C20.8264 14.8263 20.8208 14.8189 20.8208 14.8099H12.8238C12.2157 14.7913 11.7371 14.2846 11.7533 13.6764V2.34211H10.5802L10.6199 15.9773L18.5992 15.9433C19.203 15.9439 19.6924 16.4332 19.693 17.0371V17.6774L23.1273 17.6434L23.0876 17.0371C23.0864 16.7466 23.2013 16.4677 23.4066 16.2623C23.612 16.0569 23.8909 15.9421 24.1814 15.9433H32.1948L32.1551 2.30811L31.0217 2.33077Z" fill="#D00000"/>
<defs>
<clipPath id="clip0_1_2119">
<rect width="32.3028" height="32.3028" fill="white" transform="translate(0.425919 0.357666)"/>
</clipPath>
</defs>
</svg>
