<svg width="25" height="32" viewBox="0 0 25 32" fill="none" xmlns="http://www.w3.org/2000/svg">
<path fill-rule="evenodd" clip-rule="evenodd" d="M5.53816 8.9229C8.35736 8.9229 10.6428 7.05302 10.6428 4.74639C10.6428 2.43977 8.35736 0.569885 5.53816 0.569885C2.71895 0.569885 0.433533 2.43977 0.433533 4.74639C0.433533 6.37265 1.56957 7.78182 3.22775 8.47163C3.44999 9.39318 2.75719 10.0838 2.06439 10.3147C3.64537 10.9471 4.58798 9.69635 5.15321 8.91121C5.28029 8.91896 5.40866 8.9229 5.53816 8.9229Z" fill="#D00000"/>
<path d="M23.1787 27.717C16.6819 26.6033 11.6546 28.4905 9.95306 29.5733C16.4499 28.3667 22.5599 30.6174 24.8029 31.8936L23.1787 27.717Z" fill="#D00000"/>
<path fill-rule="evenodd" clip-rule="evenodd" d="M3.91903 30.2241L3.3325 24.7986C3.84256 24.9875 4.41743 25.1405 5.0571 25.2576C6.00559 25.4347 7.20635 25.4424 8.65936 25.2806C10.0639 25.1242 11.2568 24.8115 12.2379 24.3425C13.2892 23.8399 14.1364 23.2573 14.7796 22.5946C15.5119 21.8448 16.0238 21.0939 16.3151 20.3418C16.6281 19.5616 16.7396 18.7268 16.6497 17.8373C16.5572 16.9223 16.3158 16.2296 15.9253 15.759C15.452 15.1949 14.9348 14.8027 14.3738 14.5824C13.786 14.3395 13.0969 14.1849 12.3065 14.1187C11.9356 14.0829 11.5066 14.0792 11.0197 14.1077C10.5545 14.1081 10.2237 14.1064 10.0274 14.1025C9.00002 14.1141 8.24416 14.1469 7.75982 14.2008C7.20283 14.2628 6.53173 14.2861 5.74652 14.2707C5.20604 14.2538 4.71712 14.1411 4.27974 13.9328C3.92015 13.7673 3.71595 13.443 3.66714 12.9601C3.63889 12.6806 3.7075 12.3902 3.87297 12.0891C4.07918 11.7063 4.34152 11.3944 4.66 11.1533C5.43385 11.2985 6.25667 11.3225 7.12848 11.2255C8.19402 11.1069 9.10013 10.8646 9.84681 10.4988C10.5935 10.1329 11.2763 9.62 11.8953 8.95997C12.4035 8.41507 12.8102 7.71441 13.1155 6.85799C13.3826 6.10863 13.466 5.23835 13.3658 4.24716C13.2554 3.15431 12.9692 2.26094 12.5072 1.56704L12.767 1.49884C14.7505 1.51357 16.5396 1.74377 17.9567 2.0327L24.3375 25.3515C13.0145 23.7737 6.00729 27.9425 3.91903 30.2241ZM13.7404 18.8551C13.6916 18.3722 13.532 18.0045 13.2615 17.7518C12.9885 17.4738 12.6143 17.2842 12.1387 17.1829C11.6632 17.0817 11.1552 17.0226 10.6147 17.0056C9.8295 16.9902 9.21766 16.9941 8.77919 17.0172L6.84624 17.1553C6.72516 17.1688 6.09992 17.1613 4.97053 17.1328C4.30421 17.5668 3.7775 18.0495 3.39041 18.5809C3.00588 19.1378 2.8483 19.7593 2.91766 20.4455C2.96134 20.8775 3.11141 21.2721 3.3679 21.629C3.62182 21.9606 3.98086 22.2419 4.44502 22.4729C4.9334 22.7012 5.50011 22.8566 6.14516 22.939C6.81443 23.0187 7.59708 23.0087 8.4931 22.9089C9.24382 22.8253 10.0098 22.6501 10.7909 22.3832C11.4077 22.1861 11.9645 21.8799 12.4613 21.4648C12.9148 21.1059 13.2421 20.7096 13.4432 20.276C13.6659 19.8143 13.7529 19.342 13.7041 18.8591L13.7404 18.8551Z" fill="#001C54"/>
</svg>
