<svg width="33" height="33" viewBox="0 0 33 33" fill="none" xmlns="http://www.w3.org/2000/svg">
<g clip-path="url(#clip0_1_2133)">
<path d="M19.846 0.708965C18.7462 0.475779 17.6136 0.357483 16.4797 0.357483C12.1655 0.357483 8.1095 2.03748 5.05891 5.08814C2.00831 8.13874 0.328247 12.1947 0.328247 16.5089C0.328247 20.1037 1.53771 23.6128 3.74124 26.4383C3.49335 26.8218 3.35992 27.2684 3.35992 27.736C3.35992 28.3763 3.60932 28.9784 4.06212 29.4312C4.51493 29.884 5.11701 30.1334 5.75739 30.1334C6.39777 30.1334 6.99985 29.884 7.45266 29.4312C7.90553 28.9784 8.15486 28.3763 8.15486 27.736C8.15486 27.0956 7.90546 26.4936 7.45266 26.0407C6.99985 25.5878 6.39777 25.3384 5.75739 25.3384C5.37783 25.3384 5.01196 25.4267 4.68244 25.5924C2.68547 23.0001 1.59008 19.7935 1.59008 16.5089C1.59008 8.29874 8.2695 1.61931 16.4797 1.61931C17.5258 1.61931 18.5703 1.72833 19.5842 1.94335C19.9253 2.01559 20.26 1.79786 20.3323 1.45704C20.4046 1.11616 20.1868 0.781268 19.846 0.708965ZM4.95436 26.9329C5.17575 26.7114 5.46654 26.6007 5.75739 26.6007C6.04824 26.6007 6.33903 26.7115 6.56042 26.9329C6.77493 27.1473 6.89304 27.4325 6.89304 27.7359C6.89304 28.0392 6.77493 28.3244 6.56042 28.5389C6.11764 28.9818 5.39714 28.9817 4.95436 28.5389C4.73985 28.3245 4.62174 28.0392 4.62174 27.7359C4.62174 27.4325 4.73985 27.1474 4.95436 26.9329Z" fill="#001C54"/>
<path d="M29.2177 6.57942C29.4656 6.19595 29.5991 5.74926 29.5991 5.28175C29.5991 4.64137 29.3497 4.03929 28.8969 3.58649C28.444 3.13361 27.842 2.88428 27.2016 2.88428C26.5612 2.88428 25.9591 3.13368 25.5063 3.58649C25.0535 4.03929 24.8041 4.64137 24.8041 5.28175C24.8041 5.92213 25.0535 6.52421 25.5063 6.97702C25.9591 7.42989 26.5612 7.67923 27.2016 7.67923C27.5812 7.67923 27.947 7.59096 28.2766 7.42528C30.2735 10.0176 31.3689 13.2242 31.3689 16.5088C31.3689 24.719 24.6895 31.3984 16.4793 31.3984C15.5961 31.3984 14.7112 31.3205 13.8492 31.1669C13.5063 31.1059 13.1784 31.3342 13.1174 31.6774C13.0562 32.0204 13.2848 32.348 13.6278 32.4092C14.5627 32.5757 15.5221 32.6602 16.4793 32.6602C20.7935 32.6602 24.8495 30.9802 27.9001 27.9296C30.9508 24.8791 32.6307 20.823 32.6307 16.5088C32.6307 12.914 31.4213 9.4049 29.2177 6.57942ZM28.0047 6.08478C27.7902 6.29929 27.505 6.4174 27.2017 6.4174C26.8983 6.4174 26.6131 6.29935 26.3986 6.08478C25.9558 5.642 25.9558 4.92156 26.3986 4.47872C26.6131 4.26421 26.8983 4.14611 27.2017 4.14611C27.505 4.14611 27.7902 4.26421 28.0047 4.47872C28.2192 4.69317 28.3373 4.97841 28.3373 5.28175C28.3373 5.5851 28.2192 5.87027 28.0047 6.08478Z" fill="#001C54"/>
<path d="M10.9339 30.333L10.6957 30.9172L10.9321 30.3323C10.6089 30.2018 10.2413 30.3577 10.1107 30.6808C9.98013 31.0038 10.1362 31.3715 10.4592 31.5022L10.4787 31.5099C10.5531 31.5384 10.6297 31.5519 10.705 31.5519C10.9591 31.5519 11.1993 31.398 11.2955 31.1471C11.4201 30.8216 11.2593 30.4576 10.9339 30.333Z" fill="#D00000"/>
<path d="M22.5252 1.5274L22.514 1.52292C22.1905 1.39345 21.8233 1.55087 21.6939 1.8744C21.5644 2.19793 21.7218 2.565 22.0454 2.69446L22.0525 2.69736C22.13 2.72866 22.21 2.74342 22.2887 2.74342C22.5383 2.74342 22.7746 2.59433 22.8739 2.34872C23.0044 2.02563 22.8483 1.65793 22.5252 1.5274Z" fill="#D00000"/>
<g clip-path="url(#clip1_1_2133)">
<path d="M13.6451 7.5986C13.6633 5.76198 12.3414 4.30121 12.285 4.23998L11.8739 3.79215L11.4539 4.23188C11.3965 4.2921 10.0457 5.72745 10.0275 7.56406C10.0125 9.06284 10.8903 10.3114 11.2441 10.7532L11.2334 11.7652C11.1245 11.6167 11.0043 11.4724 10.87 11.3354C9.58429 10.0244 7.61619 9.92649 7.53302 9.92296L6.92554 9.89723L6.93943 10.5051C6.94134 10.5883 7.00084 12.5579 8.28651 13.8689C9.22642 14.8273 10.5302 15.1373 11.1965 15.2361L11.1847 16.3445C11.0792 16.2024 10.9631 16.064 10.8341 15.9325C9.54838 14.6214 7.58018 14.5236 7.497 14.5201L6.88964 14.4943L6.90352 15.1021C6.90543 15.1853 6.96483 17.1551 8.2506 18.4662C9.18429 19.4182 10.4774 19.7304 11.1476 19.8313L11.1353 20.9854C11.0308 20.8447 10.9157 20.7079 10.788 20.5777C9.50225 19.2667 7.53406 19.1689 7.45088 19.1653L6.84341 19.1396L6.85739 19.7474C6.85931 19.8306 6.9187 21.8003 8.20447 23.1114C9.13661 24.0619 10.4271 24.3745 11.0982 24.4761L11.0347 26.1884L12.1733 26.2001L12.2382 24.3625C12.7785 24.2931 13.7391 24.0928 14.5947 23.5207C14.2326 23.2867 13.8905 23.0096 13.5762 22.6891C13.0297 22.1318 12.6156 21.4933 12.333 20.8129C12.3134 20.8374 12.2941 20.862 12.2751 20.8866L12.2774 20.6743C11.729 19.2537 11.7459 17.6648 12.3246 16.2558L12.3244 16.256L12.3361 15.1493C12.5251 15.1234 12.759 15.0819 13.0187 15.0163C13.2087 14.756 13.4221 14.5077 13.6595 14.2749C14.3292 13.6182 15.1158 13.1525 15.9516 12.8765C16.5755 11.7502 16.635 10.571 16.6377 10.5071L16.6638 9.89973L16.0559 9.91382C15.9728 9.91563 14.003 9.97587 12.6915 11.2621C12.5763 11.3751 12.471 11.4935 12.3738 11.6152L12.383 10.7424C12.7566 10.2895 13.6304 9.07349 13.6451 7.5986Z" fill="#001C54"/>
</g>
<path d="M20.4878 22.0914C20.7734 21.2879 20.5691 20.3917 19.9635 19.7913C19.7199 19.533 19.5089 19.2458 19.3354 18.9361C19.0661 18.4964 18.7901 18.0464 18.2611 17.8102V17.0356C18.4784 17.2309 18.7603 17.339 19.0526 17.339C19.4264 17.3291 19.7798 17.1665 20.0304 16.889C20.3515 16.5439 20.5563 16.1068 20.6161 15.6393C20.6904 15.1739 20.617 14.6969 20.4061 14.2754C20.2215 13.8829 19.8567 13.6054 19.4291 13.5323C18.9863 13.4864 18.5493 13.6618 18.2611 14.0012V11.7435C18.2624 10.604 19.1858 9.68056 20.3253 9.67926H21.5049C22.6444 9.68056 23.5678 10.604 23.5691 11.7435V14.6924C23.5691 15.0181 23.8331 15.2822 24.1589 15.2822H27.1078C28.2473 15.2835 29.1707 16.2069 29.172 17.3464V18.5259C29.1707 19.6654 28.2473 20.5889 27.1078 20.5902H24.1589C23.8331 20.5902 23.5691 20.8542 23.5691 21.1799V24.1288C23.5678 25.2683 22.6444 26.1918 21.5049 26.1931H20.3253C19.1858 26.1918 18.2624 25.2683 18.2611 24.1288V22.7025C18.5346 22.8713 18.8513 22.957 19.1726 22.9493C19.7488 22.9719 20.2763 22.6279 20.4878 22.0914ZM27.1078 16.4617C27.5964 16.4617 27.9924 16.8578 27.9924 17.3464C27.9924 17.5092 28.1245 17.6413 28.2873 17.6413C28.4502 17.6413 28.5822 17.5092 28.5822 17.3464C28.5812 16.5325 27.9217 15.8729 27.1078 15.8719C26.9449 15.8719 26.8129 16.004 26.8129 16.1668C26.8129 16.3297 26.9449 16.4617 27.1078 16.4617ZM25.6333 16.4617H25.9282C26.0911 16.4617 26.2231 16.3297 26.2231 16.1668C26.2231 16.004 26.0911 15.8719 25.9282 15.8719H25.6333C25.4705 15.8719 25.3384 16.004 25.3384 16.1668C25.3384 16.3297 25.4705 16.4617 25.6333 16.4617ZM21.2241 19.4091C21.7868 19.3696 22.2804 19.0191 22.5031 18.5009C22.8569 17.769 22.67 16.943 22.0846 16.6593C21.4993 16.3756 20.7349 16.7398 20.3802 17.4714C20.0254 18.203 20.213 19.029 20.7983 19.3127C20.9311 19.3768 21.0767 19.4098 21.2241 19.4091Z" fill="#001C54"/>
<path d="M19.3457 14.1161C19.5851 14.1652 19.786 14.3271 19.8847 14.5508C20.0377 14.862 20.0893 15.2134 20.0322 15.5554C19.9903 15.8997 19.8418 16.2222 19.6075 16.4779C19.4589 16.6771 19.2133 16.7791 18.9673 16.7437C18.7214 16.7083 18.5144 16.5413 18.428 16.3083C18.3144 16.0829 18.2572 15.8332 18.2614 15.5808V15.572C18.2617 15.4822 18.2683 15.3925 18.2811 15.3036C18.3834 14.5917 18.8697 14.0486 19.3457 14.1161Z" fill="#D00000"/>
<path d="M21.6519 17.151C21.7131 17.1503 21.7737 17.1637 21.8289 17.1902C22.1164 17.3294 22.1827 17.8121 21.9736 18.2435C21.7646 18.675 21.3452 18.9218 21.0568 18.7823C20.7684 18.6428 20.703 18.1604 20.9123 17.7289C21.0373 17.4175 21.3196 17.197 21.6519 17.151Z" fill="#D00000"/>
<path d="M15.9203 19.2442C16.2936 18.6341 16.5404 18.2313 17.3761 18.2313C18.2118 18.2313 18.4587 18.6341 18.832 19.2442C19.0298 19.5945 19.2703 19.9189 19.548 20.21C19.9791 20.6452 20.131 21.2847 19.9417 21.8672C19.821 22.1824 19.509 22.3821 19.1723 22.3597C18.9034 22.3658 18.6408 22.2781 18.4295 22.1117C17.8012 21.656 16.9511 21.656 16.3228 22.1117C16.1115 22.2781 15.8489 22.3658 15.58 22.3597C15.2432 22.3821 14.9312 22.1824 14.8106 21.8672C14.6214 21.2846 14.7736 20.645 15.2049 20.21C15.4824 19.9189 15.7227 19.5945 15.9203 19.2442Z" fill="#D00000"/>
<path d="M14.7217 15.5555C14.8028 16.1199 15.2207 16.8235 15.7863 16.743C16.3519 16.6625 16.5545 15.8719 16.4731 15.3037C16.3846 14.6944 15.9455 14.0389 15.4085 14.1162C14.8468 14.197 14.6395 14.9846 14.7217 15.5555Z" fill="#D00000"/>
<path d="M12.7816 18.2437C12.9909 18.6748 13.4109 18.9219 13.6981 18.7825C13.9853 18.643 14.0519 18.1605 13.8429 17.7291C13.6659 17.3646 13.2531 17.0323 12.9264 17.1903C12.6388 17.3295 12.5725 17.8123 12.7816 18.2437Z" fill="#D00000"/>
</g>
<defs>
<clipPath id="clip0_1_2133">
<rect width="32.3028" height="32.3028" fill="white" transform="translate(0.328247 0.357727)"/>
</clipPath>
<clipPath id="clip1_1_2133">
<rect width="19.4248" height="19.4248" fill="white" transform="translate(-1.93738 17.338) rotate(-44.4415)"/>
</clipPath>
</defs>
</svg>
