<svg width="22" height="22" viewBox="0 0 22 22" fill="none" xmlns="http://www.w3.org/2000/svg">
<g clip-path="url(#clip0_1_2410)">
<path fill-rule="evenodd" clip-rule="evenodd" d="M4.01279 0.959473C2.31665 0.959473 0.94165 2.33446 0.94165 4.03061V17.9689C0.94165 19.665 2.31664 21.04 4.01279 21.04H17.951C19.6472 21.04 21.0222 19.665 21.0222 17.9689V4.03061C21.0222 2.33447 19.6472 0.959473 17.9511 0.959473H4.01279ZM12.7007 15.0522V13.5223C12.7007 13.1985 12.5907 13.0365 12.3708 13.0365C12.2411 13.0365 12.1142 13.0897 11.9901 13.1961V15.3785C12.1142 15.4849 12.2411 15.538 12.3708 15.538C12.5907 15.538 12.7007 15.3761 12.7007 15.0522ZM15.5599 13.8631V13.5296C15.5599 13.2009 15.433 13.0365 15.1792 13.0365C14.9255 13.0365 14.7986 13.2009 14.7986 13.5296V13.8631H15.5599ZM8.29347 11.9489H7.38833V16.0746H6.54242V11.9489H5.6542V11.2674H8.29347V11.9489ZM10.5774 16.0746H9.82458V15.6831C9.52005 15.9779 9.23243 16.1253 8.96174 16.1253C8.70233 16.1253 8.53878 16.0359 8.47111 15.8571C8.42599 15.7411 8.40344 15.5646 8.40344 15.3278V12.4927H9.1563V15.132C9.1563 15.2867 9.15912 15.3713 9.16476 15.3858C9.18168 15.4873 9.24089 15.538 9.3424 15.538C9.49467 15.538 9.65539 15.4365 9.82458 15.2335V12.4927H10.5774V16.0746ZM13.4536 13.5731V15.0015C13.4536 15.3544 13.4282 15.596 13.3774 15.7266C13.2816 15.9924 13.0814 16.1253 12.7768 16.1253C12.5061 16.1253 12.2439 15.9924 11.9901 15.7266V16.0746H11.2373V11.2674H11.9901V12.8408C12.2326 12.5797 12.4949 12.4492 12.7768 12.4492C13.0814 12.4492 13.2816 12.5846 13.3774 12.8553C13.4282 12.981 13.4536 13.2202 13.4536 13.5731ZM16.3128 14.8347V14.929C16.3128 15.1658 16.3071 15.306 16.2958 15.3495C16.2789 15.48 16.2197 15.6105 16.1182 15.7411C15.9152 15.9973 15.6107 16.1253 15.2046 16.1253C14.8155 16.1253 14.511 16.0021 14.291 15.7556C14.1275 15.5767 14.0457 15.2963 14.0457 14.9145V13.6601C14.0457 13.2782 14.1247 12.9979 14.2826 12.819C14.5025 12.5725 14.8042 12.4492 15.1877 12.4492C15.5655 12.4492 15.8644 12.5725 16.0844 12.819C16.2366 12.9979 16.3128 13.2782 16.3128 13.6601V14.4069H14.7986V15.0377C14.7986 15.3713 14.9283 15.538 15.1877 15.538C15.3738 15.538 15.4866 15.451 15.5261 15.277C15.5373 15.2287 15.543 15.0812 15.543 14.8347H16.3128ZM11.1696 6.78642V8.30907C11.1696 8.64744 11.0483 8.81662 10.8058 8.81662C10.5633 8.81662 10.4421 8.64744 10.4421 8.30907V6.78642C10.4421 6.45289 10.5633 6.28612 10.8058 6.28612C11.0483 6.28612 11.1696 6.45289 11.1696 6.78642ZM17.0318 16.2921C17.1784 15.7314 17.2517 14.8855 17.2517 13.7544C17.2517 12.6039 17.1784 11.758 17.0318 11.2166C16.9585 10.9314 16.7963 10.6921 16.5454 10.4988C16.2944 10.3054 16.0054 10.1918 15.6783 10.158C14.6407 10.0613 13.0757 10.013 10.9835 10.013C8.89125 10.013 7.32912 10.0613 6.2971 10.158C5.96437 10.1918 5.67394 10.3054 5.42581 10.4988C5.17767 10.6921 5.01413 10.9314 4.93517 11.2166C4.78855 11.7773 4.71524 12.6233 4.71524 13.7544C4.71524 14.9048 4.78855 15.7507 4.93517 16.2921C5.00849 16.5773 5.17062 16.8166 5.42158 17.0099C5.67253 17.2033 5.96155 17.3145 6.28864 17.3435C7.3263 17.445 8.89125 17.4957 10.9835 17.4957C13.0757 17.4957 14.6407 17.445 15.6783 17.3435C16.0054 17.3145 16.293 17.2033 16.5412 17.0099C16.7893 16.8166 16.9528 16.5773 17.0318 16.2921ZM9.67231 4.50244H8.80948L8.23425 6.40938L7.63365 4.50244H6.73698C6.89488 4.90849 7.07817 5.36045 7.28682 5.85833C7.55188 6.5254 7.72388 7.03778 7.80283 7.39548V9.36043H8.64875V7.39548L9.67231 4.50244ZM11.9394 8.18581V6.91693C11.9394 6.53023 11.8604 6.24745 11.7025 6.0686C11.4882 5.82208 11.1893 5.69881 10.8058 5.69881C10.428 5.69881 10.1319 5.82208 9.91763 6.0686C9.75972 6.24745 9.68077 6.53023 9.68077 6.91693V8.18581C9.68077 8.57252 9.75972 8.85771 9.91763 9.0414C10.1319 9.28792 10.428 9.41118 10.8058 9.41118C11.1893 9.41118 11.4882 9.28792 11.7025 9.0414C11.8604 8.86254 11.9394 8.57735 11.9394 8.18581ZM14.7732 9.36043V5.74232H14.0034V8.50484C13.8342 8.7127 13.6735 8.81662 13.5212 8.81662C13.4197 8.81662 13.3605 8.76345 13.3436 8.65711C13.338 8.64744 13.3351 8.56285 13.3351 8.40333V5.74232H12.5653V8.5991C12.5653 8.84563 12.5879 9.02689 12.633 9.14291C12.7063 9.32176 12.8727 9.41118 13.1321 9.41118C13.4141 9.41118 13.7045 9.26133 14.0034 8.96164V9.36043H14.7732Z" fill="url(#paint0_linear_1_2410)"/>
</g>
<defs>
<linearGradient id="paint0_linear_1_2410" x1="21.0222" y1="10.9997" x2="0.94165" y2="10.9997" gradientUnits="userSpaceOnUse">
<stop stop-color="#001C54"/>
<stop offset="1" stop-color="#001C54"/>
</linearGradient>
<clipPath id="clip0_1_2410">
<rect width="20.0805" height="20.0805" fill="white" transform="translate(0.939575 0.959961)"/>
</clipPath>
</defs>
</svg>
